<svg width="187" height="38" viewBox="0 0 187 38" fill="none" xmlns="http://www.w3.org/2000/svg">
<g clip-path="url(#clip0_855_10)">
<path d="M20.8603 38L14.084 37.9921C14.084 37.9921 17.56 37.8408 19.2317 37.1203C21.0322 36.344 21.7821 35.6235 21.7821 35.6235L20.8564 38H20.8603Z" fill="#95C11F"/>
<path d="M22.86 17.4795V17.5591C22.86 20.7318 21.0907 22.6107 18.7122 23.6695C21.9305 24.7483 23.9887 26.5914 24.0512 30.2019L32.2414 10.5889H13.7949C17.1772 10.5889 19.5597 11.4527 21.1337 13.0569C22.2078 14.1516 22.8639 15.6006 22.8639 17.4835L22.86 17.4795Z" fill="#95C11F"/>
<path d="M116.206 10.5889H104.754L116.206 38.0001V10.5889Z" fill="#FBBA00"/>
<path d="M93.959 37.9998H108.215L101.106 19.5332L93.959 37.9998Z" fill="#31B7BC"/>
<path d="M97.5678 10.5889H87.0889V35.6834L97.5678 10.5889Z" fill="#E30613"/>
<path d="M67.2286 10.5889H57.6597V20.8472H67.2286V10.5889Z" fill="#EF7D00"/>
<path d="M67.2286 27.5825H57.6597V38.0001H67.2286V27.5825Z" fill="#EF7D00"/>
<path d="M50.2035 10.5889H39.4277L50.2035 36.3919V10.5889Z" fill="#31B7BC"/>
<path d="M28.6284 37.9998H42.8841L35.7758 19.5332L28.6284 37.9998Z" fill="#E6007E"/>
<path d="M104.754 10.5889H97.5677L87.0887 35.6834V10.5889H79.5938V38.0001H86.1201H87.0887H93.9588L101.106 19.5336L108.215 38.0001H116.206L104.754 10.5889Z" fill="#13100D"/>
<path d="M67.2245 10.5889V20.8473H57.6556V10.5889H50.2036V36.396L39.4239 10.5889H32.2375L24.0473 30.202C23.9887 26.5915 21.9265 24.7484 18.7082 23.6696C21.0907 22.6107 22.856 20.7318 22.856 17.5592V17.4796C22.856 15.6007 22.2038 14.1517 21.1258 13.053C19.5518 11.4488 17.1694 10.585 13.787 10.585H0V16.6954H7.26066H12.1037C14.3338 16.6954 15.486 17.5552 15.486 19.044V19.1236C15.486 20.7278 14.2167 21.5121 11.9514 21.5121H0V26.8383H7.26066H12.9473C15.447 26.8383 16.5991 27.8175 16.5991 29.3063V29.3859C16.5991 30.9902 15.2907 31.8938 13.0254 31.8938H0V38.0042H13.8691C15.4743 37.9843 17.5599 37.7136 18.7277 37.3195C19.8213 36.9493 20.9071 36.3482 21.7703 35.6635L20.8602 38.0042H28.6325L35.7799 19.5336L42.8883 38.0042H57.6634V27.5866H67.2324V38.0042H74.6844V10.5889H67.2324H67.2245Z" fill="#13100D"/>
<path d="M79.5979 10.5889H74.6807V38.0001H79.5979V10.5889Z" fill="#95C11F"/>
<path d="M13.0254 31.8895C15.2907 31.8895 16.5991 30.9899 16.5991 29.3816V29.302C16.5991 27.8132 15.447 26.834 12.9473 26.834H0V31.8855H7.26066H13.0254V31.8895Z" fill="#FBBA00"/>
<path d="M11.9475 21.512C14.2128 21.512 15.4821 20.7278 15.4821 19.1236V19.0439C15.4821 17.5551 14.3299 16.6953 12.0998 16.6953H0V19.3226V21.512H11.9475Z" fill="#FBBA00"/>
<path d="M79.5938 10.5889H87.0848V17.6308H79.5938V10.5889Z" fill="#034991"/>
<path d="M80.5625 16.5959L83.3433 11.624L86.1203 16.5959H80.5625Z" fill="white"/>
<path d="M98.0325 0.171387H96.5328L93.4824 8.2443H95.158L95.611 7.0461L98.9738 7.03416L99.4386 8.24032H101.255L98.0325 0.171387ZM96.1578 5.58119L97.2983 2.28117L98.4387 5.57721H96.1617L96.1578 5.58119Z" fill="#13100D"/>
<path d="M4.17908 5.44961H5.34298C5.30392 6.0507 5.12816 6.4647 4.81571 6.68762C4.50326 6.91054 4.08925 7.022 3.5737 7.022C2.9527 7.022 2.49183 6.78316 2.19109 6.30547C1.89036 5.82778 1.74194 5.09931 1.74194 4.11607C1.74194 3.13283 1.89817 2.42426 2.20672 2.0023C2.51917 1.57637 2.97223 1.36539 3.5698 1.36539C4.06191 1.36539 4.44858 1.48481 4.73369 1.72763C5.01881 1.97046 5.21409 2.36455 5.31954 2.91389H7.03023C6.95602 2.33271 6.80761 1.82715 6.57717 1.40122C6.34674 0.975278 5.98741 0.632935 5.4992 0.38215C5.01099 0.127383 4.37046 0 3.5698 0C2.58557 0 1.83568 0.206998 1.32013 0.617012C0.800672 1.02703 0.460878 1.5286 0.296839 2.12571C0.132801 2.71884 0.0507812 3.3876 0.0507812 4.12801C0.0507812 5.07144 0.156235 5.85167 0.374953 6.47266C0.589765 7.09365 0.956899 7.56736 1.47245 7.89776C1.988 8.22816 2.69102 8.39535 3.57761 8.39535C4.81571 8.39535 5.69058 8.13262 6.19832 7.61115C6.70606 7.08967 6.98727 6.45674 7.03414 5.71234C7.04585 5.60088 7.05366 5.34611 7.05757 4.95998C7.05757 4.56987 7.06148 4.30316 7.06148 4.15986H4.17908V5.45757V5.44961Z" fill="#13100D"/>
<path d="M13.592 0.497591C13.0764 0.16719 12.3734 0 11.4868 0C10.5026 0 9.75267 0.206998 9.23712 0.617012C8.72157 1.02703 8.37787 1.5286 8.21383 2.12571C8.04979 2.71884 7.96777 3.3876 7.96777 4.12801C7.96777 5.07144 8.07323 5.85167 8.29194 6.47266C8.50676 7.09365 8.87389 7.56736 9.38944 7.89776C9.90499 8.22816 10.6041 8.39535 11.4868 8.39535C12.471 8.39535 13.2209 8.18835 13.7404 7.77834C14.2598 7.36832 14.6035 6.86675 14.7676 6.26964C14.9316 5.67651 15.0136 5.00775 15.0136 4.26734C15.0136 3.32391 14.9043 2.54368 14.6894 1.92269C14.4746 1.3017 14.1075 0.827991 13.592 0.497591ZM12.8264 6.33333C12.514 6.7951 12.0687 7.02598 11.4868 7.02598C10.8697 7.02598 10.4127 6.79112 10.1237 6.31741C9.83078 5.8437 9.68627 5.11125 9.68627 4.12403C9.68627 3.21245 9.8425 2.52776 10.151 2.066C10.4635 1.60423 10.9087 1.37335 11.4868 1.37335C12.1078 1.37335 12.5648 1.60821 12.8577 2.08192C13.1506 2.55563 13.2951 3.28808 13.2951 4.2753C13.2951 5.18688 13.1389 5.87157 12.8264 6.33333Z" fill="#13100D"/>
<path d="M19.0634 6.13849H19.0478L16.9036 0.171387H15.1382L18.2823 8.24828H19.782L22.8363 0.171387H21.1881L19.0634 6.13849Z" fill="#13100D"/>
<path d="M25.2346 4.88058H28.1209L28.2537 3.52714H25.2346V1.52483H28.9294L29.0583 0.171387H23.5317L23.5474 8.2443H29.1481V6.88687H25.2346V4.88058Z" fill="#13100D"/>
<path d="M36.647 6.97437C36.5338 7.00622 36.4283 7.02612 36.3268 7.02612C36.0807 7.02612 35.8698 6.95845 35.6901 6.81912C35.5105 6.68378 35.3503 6.48872 35.2019 6.23396C35.0574 5.98317 34.8856 5.63287 34.6942 5.18703C35.2722 5.03576 35.7175 4.7372 36.0221 4.29534C36.3307 3.85348 36.483 3.28424 36.483 2.58363C36.483 1.7437 36.233 1.13067 35.7331 0.748517C35.2332 0.366368 34.5223 0.175293 33.5967 0.175293H30.3784V8.2482H32.0696V5.31043H33.1397L33.253 5.63287C33.4873 6.28571 33.6943 6.79524 33.874 7.1535C34.0537 7.51575 34.2997 7.8143 34.6122 8.04917C34.9246 8.28403 35.3308 8.39947 35.8307 8.39947C36.0768 8.39947 36.3385 8.3318 36.6197 8.19645C36.9009 8.06111 37.1391 7.8979 37.3383 7.69886L36.9243 6.84699C36.8423 6.89874 36.7486 6.93854 36.6353 6.97437H36.647ZM34.6044 3.50716C34.4716 3.68231 34.2802 3.79775 34.0341 3.86144C33.7881 3.92514 33.4639 3.95698 33.0694 3.95698H32.0774V1.52476H33.0694C33.4639 1.52476 33.7881 1.56059 34.038 1.63224C34.288 1.70389 34.4794 1.83127 34.6083 2.01041C34.7372 2.18954 34.8036 2.44033 34.8036 2.76276C34.8036 3.0852 34.7372 3.33201 34.6044 3.50318V3.50716Z" fill="#13100D"/>
<path d="M43.0251 5.48167L39.7873 0.171387H38.0142L38.0376 8.2443H39.7248V2.88226L42.9587 8.2443H44.7124V0.171387H43.0251V5.48167Z" fill="#13100D"/>
<path d="M51.6837 0.497591C51.1682 0.16719 50.4652 0 49.5786 0C48.5944 0 47.8445 0.206998 47.3289 0.617012C46.8134 1.02703 46.4697 1.5286 46.3056 2.12571C46.1416 2.71884 46.0596 3.3876 46.0596 4.12801C46.0596 5.07144 46.165 5.85167 46.3837 6.47266C46.5986 7.09365 46.9657 7.56736 47.4812 7.89776C47.9968 8.22816 48.6959 8.39535 49.5786 8.39535C50.5628 8.39535 51.3127 8.18835 51.8322 7.77834C52.3516 7.36832 52.6953 6.86675 52.8594 6.26964C53.0234 5.67651 53.1054 5.00775 53.1054 4.26734C53.1054 3.32391 52.9961 2.54368 52.7812 1.92269C52.5664 1.3017 52.1993 0.827991 51.6837 0.497591ZM50.9182 6.33333C50.6058 6.7951 50.1605 7.02598 49.5786 7.02598C48.9615 7.02598 48.5045 6.79112 48.2155 6.31741C47.9226 5.8437 47.7781 5.11125 47.7781 4.12403C47.7781 3.21245 47.9343 2.52776 48.2428 2.066C48.5553 1.60423 49.0005 1.37335 49.5786 1.37335C50.1996 1.37335 50.6566 1.60821 50.9495 2.08192C51.2424 2.55563 51.3869 3.28808 51.3869 4.2753C51.3869 5.18688 51.2307 5.87157 50.9182 6.33333Z" fill="#13100D"/>
<path d="M63.7212 2.5395C63.5728 1.7354 63.2096 1.13829 62.6315 0.748178C62.0574 0.362048 61.2606 0.166992 60.2491 0.166992H57.2729L57.2886 8.2399H60.253C60.8466 8.2399 61.3934 8.16427 61.8895 8.01698C62.3855 7.86969 62.7878 7.61493 63.0963 7.25268C63.3853 6.94219 63.5806 6.54411 63.6861 6.0505C63.7915 5.55689 63.8462 5.00755 63.8462 4.40248C63.8462 3.94868 63.8384 3.57847 63.8189 3.29584C63.7993 3.01321 63.7681 2.75844 63.7212 2.53552V2.5395ZM62.2136 4.37462C62.2136 4.71696 62.1941 5.0195 62.155 5.28222C62.116 5.54097 62.0535 5.76787 61.9637 5.95497C61.6668 6.57994 61.1005 6.89442 60.2647 6.89442H58.9758V1.52442H60.2881C60.7724 1.52442 61.1903 1.65578 61.5419 1.91453C61.8934 2.17328 62.1043 2.58329 62.1707 3.14457C62.198 3.37546 62.2097 3.68595 62.2097 4.07208V4.3786L62.2136 4.37462Z" fill="#13100D"/>
<path d="M70.4821 0.497591C69.9665 0.16719 69.2635 0 68.3769 0C67.3927 0 66.6428 0.206998 66.1273 0.617012C65.6117 1.02703 65.268 1.5286 65.104 2.12571C64.9399 2.71884 64.8579 3.3876 64.8579 4.12801C64.8579 5.07144 64.9634 5.85167 65.1821 6.47266C65.3969 7.09365 65.764 7.56736 66.2796 7.89776C66.7951 8.22816 67.4942 8.39535 68.3769 8.39535C69.3612 8.39535 70.111 8.18835 70.6305 7.77834C71.15 7.36832 71.4937 6.86675 71.6577 6.26964C71.8217 5.67651 71.9038 5.00775 71.9038 4.26734C71.9038 3.32391 71.7944 2.54368 71.5796 1.92269C71.3648 1.3017 70.9976 0.827991 70.4821 0.497591ZM69.7166 6.33333C69.4041 6.7951 68.9589 7.02598 68.3769 7.02598C67.7598 7.02598 67.3029 6.79112 67.0138 6.31741C66.7209 5.8437 66.5764 5.11125 66.5764 4.12403C66.5764 3.21245 66.7326 2.52776 67.0412 2.066C67.3536 1.60423 67.7989 1.37335 68.3769 1.37335C68.9979 1.37335 69.4549 1.60821 69.7478 2.08192C70.0407 2.55563 70.1853 3.28808 70.1853 4.2753C70.1853 5.18688 70.029 5.87157 69.7166 6.33333Z" fill="#13100D"/>
<path d="M77.7698 4.88058H80.6561L80.7889 3.52714H77.7698V1.52483H81.4684L81.5934 0.171387H76.0669L76.0864 8.2443H81.6872V6.88687H77.7698V4.88058Z" fill="#13100D"/>
<path d="M87.4597 3.92519C87.1472 3.78586 86.7449 3.63857 86.245 3.49129C86.1357 3.45944 85.9443 3.40769 85.6709 3.34002C85.2803 3.2405 84.9835 3.15691 84.7804 3.08127C84.5773 3.00564 84.4133 2.90612 84.2883 2.77874C84.1633 2.65135 84.1008 2.48416 84.1008 2.27318C84.1008 2.00648 84.218 1.79152 84.4562 1.62433C84.6945 1.45714 85.0343 1.37354 85.4795 1.37354C85.7841 1.37354 86.1552 1.42529 86.6004 1.52481C87.0418 1.62433 87.5183 1.77161 88.026 1.96667L88.1822 0.645068C87.737 0.450012 87.2761 0.294764 86.7996 0.183304C86.3231 0.0718434 85.9013 0.0161133 85.5342 0.0161133C84.9015 0.0161133 84.3586 0.103689 83.9094 0.27486C83.4603 0.446032 83.1127 0.688856 82.8666 1.00333C82.6205 1.31781 82.476 1.68006 82.4292 2.09405C82.4096 2.2493 82.4018 2.38066 82.4018 2.48814C82.4018 3.18875 82.6362 3.72217 83.1049 4.0884C83.5735 4.45462 84.1711 4.71735 84.9015 4.87658C85.3897 4.98008 85.7568 5.06367 86.0107 5.13931C86.2606 5.21096 86.4755 5.31844 86.6512 5.46573C86.827 5.60903 86.9168 5.80409 86.9168 6.05089C86.9168 6.31362 86.7879 6.51266 86.534 6.65198C86.2802 6.79131 85.9872 6.87888 85.6553 6.92267C85.3233 6.96248 85.0186 6.98238 84.7413 6.97442C84.136 6.89083 83.347 6.648 82.3823 6.24197L82.2261 7.60736L82.5268 7.73474C82.8236 7.86212 83.0892 7.97358 83.3314 8.06514C83.5735 8.1567 83.8626 8.23631 84.2023 8.30398C84.5421 8.37564 84.9015 8.41146 85.2803 8.41146C85.9833 8.41146 86.5887 8.31194 87.0926 8.10893C87.6003 7.90591 87.987 7.6193 88.2525 7.24113C88.5181 6.86296 88.6509 6.41712 88.6509 5.90759C88.6509 5.36621 88.5298 4.94027 88.2877 4.61783C88.0455 4.29937 87.7682 4.06849 87.4597 3.92917V3.92519Z" fill="#13100D"/>
<path d="M94.8688 0.171387H88.9048V1.52483H90.9787V8.2443H92.662V1.52483H94.7516L94.8688 0.171387Z" fill="#13100D"/>
<path d="M108.238 2.5395C108.09 1.7354 107.727 1.13829 107.149 0.748178C106.574 0.362048 105.778 0.166992 104.766 0.166992H101.794L101.81 8.2399H104.774C105.368 8.2399 105.914 8.16427 106.41 8.01698C106.906 7.86969 107.309 7.61493 107.617 7.25268C107.906 6.94219 108.102 6.54411 108.207 6.0505C108.313 5.55689 108.367 5.00755 108.367 4.40248C108.367 3.94868 108.359 3.57847 108.34 3.29584C108.32 3.01321 108.289 2.75844 108.242 2.53552L108.238 2.5395ZM106.731 4.37462C106.731 4.71696 106.711 5.0195 106.672 5.28222C106.633 5.54097 106.571 5.76787 106.481 5.95497C106.184 6.57994 105.618 6.89442 104.782 6.89442H103.493V1.52442H104.805C105.29 1.52442 105.707 1.65578 106.059 1.91453C106.41 2.17328 106.621 2.58329 106.688 3.14457C106.715 3.37546 106.727 3.68595 106.727 4.07208V4.3786L106.731 4.37462Z" fill="#13100D"/>
<path d="M115.881 1.92269C115.667 1.3017 115.299 0.827991 114.784 0.497591C114.268 0.16719 113.565 0 112.679 0C111.694 0 110.945 0.206998 110.429 0.617012C109.913 1.02703 109.57 1.5286 109.406 2.12571C109.242 2.71884 109.16 3.3876 109.16 4.12801C109.16 5.07144 109.265 5.85167 109.484 6.47266C109.699 7.09365 110.066 7.56736 110.581 7.89776C111.097 8.22816 111.796 8.39535 112.679 8.39535C113.663 8.39535 114.413 8.18835 114.932 7.77834C115.452 7.36832 115.795 6.86675 115.959 6.26964C116.123 5.67651 116.206 5.00775 116.206 4.26734C116.206 3.32391 116.096 2.54368 115.881 1.92269ZM114.018 6.33333C113.706 6.7951 113.261 7.02598 112.679 7.02598C112.062 7.02598 111.605 6.79112 111.316 6.31741C111.023 5.8437 110.878 5.11125 110.878 4.12403C110.878 3.21245 111.034 2.52776 111.343 2.066C111.655 1.60423 112.101 1.37335 112.679 1.37335C113.3 1.37335 113.757 1.60821 114.05 2.08192C114.343 2.55563 114.487 3.28808 114.487 4.2753C114.487 5.18688 114.331 5.87157 114.018 6.33333Z" fill="#13100D"/>
<path d="M124.779 19.4937C124.572 19.3822 124.33 19.2986 124.072 19.2469C123.927 19.215 123.83 19.1911 123.775 19.1792L123.342 19.0717C123.22 19.0439 123.103 19.008 122.986 18.9722C122.881 18.9404 122.787 18.9006 122.709 18.8607C122.639 18.8209 122.58 18.7771 122.533 18.7294C122.439 18.6299 122.392 18.4786 122.392 18.2756C122.392 18.1641 122.416 18.0606 122.463 17.9651C122.51 17.8735 122.58 17.7899 122.674 17.7183C122.978 17.4874 123.513 17.4078 124.15 17.5073C124.341 17.5352 124.595 17.5989 124.9 17.6944L125.068 17.7461L125.126 17.1888L125.017 17.149C124.673 17.0296 124.38 16.95 124.146 16.9142C124.002 16.8943 123.845 16.8823 123.681 16.8823C123.396 16.8823 123.138 16.9102 122.908 16.9699C122.674 17.0296 122.475 17.1212 122.31 17.2366C122.143 17.356 122.01 17.5073 121.92 17.6864C121.83 17.8616 121.787 18.0606 121.787 18.2796C121.787 18.6139 121.881 18.8966 122.068 19.1115C122.221 19.2986 122.447 19.4419 122.736 19.5414C122.928 19.6131 123.193 19.6808 123.529 19.7445C123.744 19.7883 123.927 19.832 124.08 19.8798C124.224 19.9236 124.349 19.9793 124.455 20.047C124.572 20.1226 124.658 20.2142 124.72 20.3217C124.779 20.4291 124.81 20.5645 124.81 20.7237C124.81 20.9068 124.744 21.0661 124.607 21.2014C124.486 21.3248 124.314 21.4243 124.095 21.492C123.752 21.6074 123.408 21.6154 122.869 21.5358C122.533 21.488 122.228 21.4164 121.967 21.3208L121.803 21.2651L121.705 21.8582L121.818 21.902C122.107 22.0055 122.42 22.0851 122.752 22.1369C123.006 22.1767 123.248 22.1926 123.463 22.1926C123.771 22.1926 124.052 22.1528 124.295 22.0732C124.541 21.9936 124.752 21.8781 124.923 21.7348C125.087 21.5995 125.208 21.4363 125.294 21.2571C125.38 21.078 125.419 20.8869 125.419 20.6919C125.419 20.4809 125.392 20.2978 125.333 20.1505C125.224 19.8599 125.037 19.641 124.775 19.5056L124.779 19.4937Z" fill="#13100D"/>
<path d="M127.329 19.7964H129.439L129.521 19.2152H127.329V17.5632H129.829L129.911 16.978H126.72L126.724 22.0734H129.931V21.4922H127.329V19.7964Z" fill="#13100D"/>
<path d="M134.07 20.5167C133.98 20.9188 133.809 21.2014 133.559 21.3606C133.352 21.492 133.078 21.5597 132.742 21.5597C132.586 21.5597 132.446 21.5477 132.317 21.5278C132.199 21.5079 132.09 21.4721 131.992 21.4204C131.782 21.3089 131.625 21.1218 131.512 20.8471C131.383 20.5247 131.317 20.0709 131.317 19.5016C131.317 18.9324 131.391 18.4746 131.532 18.1562C131.649 17.8934 131.817 17.7143 132.035 17.6068C132.133 17.563 132.239 17.5312 132.348 17.5113C132.61 17.4675 132.961 17.4755 133.219 17.5312C133.356 17.563 133.477 17.6108 133.582 17.6785C133.816 17.8337 133.98 18.1163 134.074 18.5144L134.102 18.6299H134.719L134.687 18.4547C134.641 18.1681 134.555 17.9173 134.434 17.7143C134.285 17.4595 134.078 17.2605 133.82 17.1172C133.531 16.9619 133.172 16.8823 132.746 16.8823C132.196 16.8823 131.754 17.0137 131.434 17.2764C131.153 17.5073 130.954 17.8377 130.84 18.2636C130.754 18.5901 130.711 19.0041 130.711 19.4937C130.711 19.9316 130.747 20.3137 130.817 20.6361C130.887 20.9665 131.004 21.2452 131.161 21.4681C131.325 21.699 131.543 21.8742 131.805 21.9856C132.059 22.0971 132.371 22.1528 132.735 22.1528C133.203 22.1528 133.598 22.0533 133.91 21.8622C134.152 21.7109 134.344 21.492 134.48 21.2094C134.531 21.1059 134.57 21.0064 134.598 20.9148C134.625 20.8272 134.656 20.7118 134.687 20.5764L134.73 20.3933H134.094L134.066 20.5088L134.07 20.5167Z" fill="#13100D"/>
<path d="M139.402 21.5161C139.363 21.532 139.316 21.5479 139.246 21.5598C139.171 21.5797 139.128 21.5837 139.105 21.5837C139.015 21.5837 138.925 21.5519 138.832 21.4842C138.726 21.4086 138.613 21.2931 138.496 21.1379C138.39 20.9986 138.277 20.8314 138.16 20.6363C138.066 20.4811 137.961 20.294 137.836 20.075C137.996 20.0551 138.14 20.0273 138.269 19.9875C138.468 19.9317 138.644 19.8441 138.789 19.7367C139.113 19.4899 139.277 19.1077 139.277 18.5902C139.277 18.2718 139.226 18.0011 139.121 17.7901C139.015 17.5751 138.859 17.4 138.66 17.2726C138.484 17.1651 138.269 17.0855 138.023 17.0417C137.785 16.9979 137.508 16.978 137.195 16.978H135.809V22.0734H136.414V20.1069H137.168L137.652 20.9468C137.804 21.2175 137.949 21.4404 138.082 21.6076C138.23 21.7947 138.382 21.938 138.539 22.0256C138.703 22.1211 138.89 22.1689 139.097 22.1689C139.195 22.1689 139.285 22.1569 139.363 22.137C139.441 22.1171 139.539 22.0813 139.652 22.0335L139.796 21.9699L139.527 21.4643L139.406 21.5161H139.402ZM136.406 17.5632H137.164C137.414 17.5632 137.636 17.5751 137.82 17.603C137.992 17.6269 138.144 17.6747 138.265 17.7423C138.398 17.818 138.492 17.9175 138.562 18.0528C138.632 18.1882 138.668 18.3713 138.668 18.5982C138.668 18.8251 138.632 18.9843 138.562 19.1077C138.496 19.2271 138.398 19.3187 138.273 19.3784C138.152 19.4381 138.004 19.4779 137.832 19.4978C137.652 19.5177 137.429 19.5297 137.164 19.5297H136.402V17.5672L136.406 17.5632Z" fill="#13100D"/>
<path d="M141.257 19.7964H143.366L143.448 19.2152H141.257V17.5632H143.752L143.838 16.978H140.647L140.651 22.0734H143.858V21.4922H141.257V19.7964Z" fill="#13100D"/>
<path d="M148.006 16.978H144.206L144.249 17.5632H145.795V22.0734H146.404V17.5632H147.951L148.006 16.978Z" fill="#13100D"/>
<path d="M149.342 16.978L147.389 22.0734H148.033L148.416 21.0742H150.72L151.095 22.0734H151.755L149.818 16.978H149.342ZM148.642 20.4731L149.572 17.9055L150.509 20.4691H148.646L148.642 20.4731Z" fill="#13100D"/>
<path d="M156.071 21.5161C156.032 21.532 155.985 21.5479 155.915 21.5598C155.841 21.5797 155.798 21.5837 155.774 21.5837C155.685 21.5837 155.595 21.5519 155.501 21.4842C155.396 21.4086 155.282 21.2931 155.165 21.1379C155.06 20.9986 154.946 20.8314 154.829 20.6363C154.736 20.4811 154.63 20.294 154.505 20.075C154.665 20.0551 154.81 20.0273 154.939 19.9875C155.138 19.9317 155.314 19.8441 155.458 19.7367C155.782 19.4899 155.946 19.1077 155.946 18.5902C155.946 18.2718 155.896 18.0011 155.79 17.7901C155.685 17.5751 155.528 17.4 155.329 17.2726C155.153 17.1651 154.939 17.0855 154.693 17.0417C154.454 16.9979 154.177 16.978 153.865 16.978H152.478V22.0734H153.083V20.1069H153.837L154.322 20.9468C154.474 21.2175 154.618 21.4404 154.751 21.6076C154.9 21.7947 155.052 21.938 155.208 22.0256C155.372 22.1211 155.56 22.1689 155.767 22.1689C155.864 22.1689 155.954 22.1569 156.032 22.137C156.11 22.1171 156.208 22.0813 156.321 22.0335L156.466 21.9699L156.196 21.4643L156.075 21.5161H156.071ZM153.076 17.5632H153.833C154.083 17.5632 154.306 17.5751 154.489 17.603C154.661 17.6269 154.814 17.6747 154.935 17.7423C155.067 17.818 155.161 17.9175 155.232 18.0528C155.302 18.1882 155.337 18.3713 155.337 18.5982C155.337 18.8251 155.302 18.9843 155.232 19.1077C155.165 19.2271 155.067 19.3187 154.943 19.3784C154.821 19.4381 154.673 19.4779 154.501 19.4978C154.322 19.5177 154.099 19.5297 153.833 19.5297H153.072V17.5672L153.076 17.5632Z" fill="#13100D"/>
<path d="M157.356 22.0734H157.957V16.978H157.348L157.356 22.0734Z" fill="#13100D"/>
<path d="M160.797 16.978L158.844 22.0734H159.489L159.871 21.0742H162.176L162.551 22.0734H163.211L161.274 16.978H160.797ZM160.098 20.4731L161.028 17.9055L161.965 20.4691H160.102L160.098 20.4731Z" fill="#13100D"/>
<path d="M130.458 27.1207C130.388 26.7903 130.27 26.5116 130.114 26.2887C129.95 26.0578 129.731 25.8866 129.466 25.7712C129.208 25.6597 128.896 25.604 128.536 25.604C127.997 25.604 127.556 25.7393 127.232 26.0021C126.951 26.229 126.751 26.5594 126.638 26.9893C126.552 27.3157 126.509 27.7257 126.509 28.2154C126.509 28.6532 126.544 29.0354 126.615 29.3578C126.685 29.6882 126.802 29.9669 126.958 30.1858C127.122 30.4167 127.341 30.5919 127.603 30.7033C127.857 30.8148 128.169 30.8705 128.532 30.8705C129.083 30.8705 129.524 30.7391 129.845 30.4764C130.126 30.2455 130.325 29.9111 130.438 29.4852C130.524 29.1628 130.567 28.7488 130.567 28.2591C130.567 27.8213 130.532 27.4351 130.462 27.1167L130.458 27.1207ZM127.115 28.2233C127.115 27.6501 127.189 27.1963 127.329 26.8778C127.447 26.6151 127.615 26.436 127.833 26.3285C127.931 26.2847 128.036 26.2529 128.146 26.233C128.263 26.2131 128.392 26.2051 128.536 26.2051C128.849 26.2051 129.103 26.2529 129.286 26.3444C129.501 26.4559 129.657 26.643 129.767 26.9137C129.892 27.2321 129.958 27.6859 129.958 28.2591C129.958 28.8324 129.888 29.2902 129.747 29.6046C129.63 29.8674 129.462 30.0425 129.239 30.15C129.142 30.1938 129.036 30.2296 128.927 30.2455C128.685 30.2853 128.357 30.2853 128.115 30.2455C127.997 30.2256 127.888 30.1898 127.79 30.138C127.576 30.0266 127.419 29.8395 127.314 29.5648C127.185 29.2384 127.119 28.7886 127.119 28.2193L127.115 28.2233Z" fill="#13100D"/>
<path d="M124.916 25.9743C124.74 25.8668 124.537 25.7911 124.31 25.7474C124.092 25.7036 123.845 25.6797 123.58 25.6797H122.049V30.775H123.588C123.974 30.775 124.31 30.7272 124.584 30.6317C124.927 30.5083 125.189 30.3053 125.361 30.0306C125.478 29.8395 125.56 29.5967 125.615 29.3021C125.665 29.0195 125.689 28.6732 125.689 28.2711C125.689 27.8452 125.673 27.5068 125.646 27.268C125.568 26.6629 125.322 26.225 124.916 25.9743ZM123.588 30.1938H122.658V26.2649H123.615C123.853 26.2649 124.056 26.2848 124.213 26.3206C124.439 26.3763 124.623 26.4679 124.752 26.6032C124.916 26.7704 125.017 27.0132 125.056 27.3197C125.08 27.5068 125.091 27.7775 125.091 28.1159V28.3667C125.091 28.705 125.072 28.9877 125.037 29.2026C125.002 29.4096 124.947 29.5768 124.869 29.7042C124.763 29.8754 124.615 29.9988 124.416 30.0704C124.205 30.15 123.927 30.1898 123.595 30.1898L123.588 30.1938Z" fill="#13100D"/>
<path d="M137.496 25.6357L135.871 29.103L134.227 25.6357H133.668L133.489 30.7351H134.098L134.215 27.0131L135.672 30.0862H136.039L137.527 27.0091L137.637 30.7351H138.242L138.097 25.6357H137.496Z" fill="#13100D"/>
<path d="M149.779 27.1207C149.709 26.7903 149.592 26.5116 149.436 26.2887C149.271 26.0578 149.053 25.8866 148.787 25.7712C148.529 25.6597 148.217 25.604 147.858 25.604C147.319 25.604 146.877 25.7393 146.553 26.0021C146.272 26.229 146.073 26.5594 145.959 26.9893C145.874 27.3157 145.831 27.7257 145.831 28.2154C145.831 28.6532 145.866 29.0354 145.936 29.3578C146.006 29.6882 146.123 29.9669 146.28 30.1858C146.444 30.4167 146.662 30.5919 146.924 30.7033C147.178 30.8148 147.49 30.8705 147.854 30.8705C148.404 30.8705 148.846 30.7391 149.166 30.4764C149.447 30.2455 149.646 29.9111 149.76 29.4852C149.846 29.1628 149.889 28.7488 149.889 28.2591C149.889 27.8213 149.853 27.4351 149.783 27.1167L149.779 27.1207ZM146.436 28.2233C146.436 27.6501 146.51 27.1963 146.651 26.8778C146.768 26.6151 146.936 26.436 147.155 26.3285C147.252 26.2847 147.358 26.2529 147.467 26.233C147.584 26.2131 147.713 26.2051 147.858 26.2051C148.17 26.2051 148.424 26.2529 148.607 26.3444C148.822 26.4559 148.979 26.643 149.088 26.9137C149.213 27.2321 149.279 27.6859 149.279 28.2591C149.279 28.8324 149.209 29.2902 149.068 29.6046C148.951 29.8674 148.783 30.0425 148.561 30.15C148.463 30.1938 148.358 30.2296 148.248 30.2455C148.006 30.2853 147.678 30.2853 147.436 30.2455C147.319 30.2256 147.209 30.1898 147.112 30.138C146.897 30.0266 146.741 29.8395 146.635 29.5648C146.506 29.2384 146.44 28.7886 146.44 28.2193L146.436 28.2233Z" fill="#13100D"/>
<path d="M140.441 28.498H142.546L142.632 27.9169H140.441V26.2649H142.937L143.022 25.6797H139.832L139.835 30.775H143.042V30.1898H140.441V28.498Z" fill="#13100D"/>
<path d="M144.136 30.775H144.737V25.6797H144.132L144.136 30.775Z" fill="#13100D"/>
<path d="M161.184 25.6357L159.559 29.103L157.915 25.6357H157.356L157.177 30.7351H157.786L157.903 27.0131L159.364 30.0862H159.731L161.215 27.0091L161.328 30.7351H161.93L161.785 25.6357H161.184Z" fill="#13100D"/>
<path d="M177.666 29.7082L175.096 25.6797H174.475L174.479 30.775H175.084V26.7425L177.654 30.775H178.267V25.6797H177.666V29.7082Z" fill="#13100D"/>
<path d="M170.702 28.498H172.811L172.893 27.9169H170.702V26.2649H173.202L173.284 25.6797H170.093L170.097 30.775H173.303V30.1898H170.702V28.498Z" fill="#13100D"/>
<path d="M184.403 28.498H186.508L186.594 27.9169H184.403V26.2649H186.899L186.985 25.6797H183.794L183.798 30.775H187.001V30.1898H184.403V28.498Z" fill="#13100D"/>
<path d="M168.058 30.775H168.663V25.6797H168.054L168.058 30.775Z" fill="#13100D"/>
<path d="M154.259 25.6797L152.306 30.775H152.951L153.333 29.7759H155.638L156.013 30.775H156.673L154.735 25.6797H154.259ZM153.56 29.1748L154.489 26.6072L155.427 29.1708H153.564L153.56 29.1748Z" fill="#13100D"/>
<path d="M182.798 25.6797H178.998L179.041 26.2649H180.587V30.775H181.196V26.2649H182.743L182.798 25.6797Z" fill="#13100D"/>
<path d="M166.148 28.0641C166.125 28.0522 166.105 28.0403 166.082 28.0283C166.152 27.9726 166.218 27.9089 166.277 27.8333C166.363 27.7258 166.429 27.6024 166.48 27.467C166.531 27.3277 166.558 27.1764 166.558 27.0132C166.558 26.5594 166.414 26.2211 166.125 26.0021C165.976 25.8907 165.785 25.8071 165.554 25.7553C165.332 25.7036 165.062 25.6797 164.746 25.6797H163.367V30.361L163.371 30.775H165.226C165.691 30.775 166.058 30.6755 166.32 30.4765C166.648 30.2297 166.816 29.8356 166.816 29.2982C166.816 28.92 166.707 28.5976 166.492 28.3468C166.394 28.2313 166.273 28.1358 166.14 28.0641H166.148ZM165.867 26.5873C165.921 26.6868 165.953 26.8301 165.953 27.0132C165.953 27.3436 165.839 27.5586 165.609 27.674C165.507 27.7258 165.383 27.7616 165.242 27.7815C165.09 27.8014 164.914 27.8134 164.711 27.8134H163.976V26.2649H164.691C164.922 26.2649 165.117 26.2728 165.269 26.2887C165.41 26.3047 165.531 26.3325 165.632 26.3763C165.738 26.4241 165.812 26.4918 165.867 26.5913V26.5873ZM163.976 28.3906H164.988C165.179 28.3906 165.351 28.4025 165.504 28.4264C165.644 28.4503 165.769 28.4901 165.871 28.5498C166.105 28.6891 166.222 28.9319 166.222 29.3021C166.222 29.6286 166.14 29.8515 165.964 29.9948C165.812 30.1222 165.574 30.1859 165.265 30.1859H163.98V28.3906H163.976Z" fill="#13100D"/>
</g>
<defs>
<clipPath id="clip0_855_10">
<rect width="187" height="38" fill="white"/>
</clipPath>
</defs>
</svg>
