<svg width="128" height="41" viewBox="0 0 128 41" fill="none" xmlns="http://www.w3.org/2000/svg">
<g clip-path="url(#clip0_159_683)">
<path d="M8.29807 9.61377H0.287109V32.4408H8.29807V9.61377Z" fill="#0069B4"/>
<path fill-rule="evenodd" clip-rule="evenodd" d="M8.58476 4.34767C8.59277 4.91898 8.48359 5.48577 8.2641 6.01236C8.0446 6.53895 7.71954 7.01393 7.30938 7.40737C6.91495 7.81349 6.44328 8.13483 5.92274 8.35208C5.4022 8.56932 4.84354 8.67798 4.28036 8.67151C3.52002 8.68037 2.77127 8.48295 2.11222 8.09983C1.46833 7.72743 0.934494 7.18819 0.565825 6.53778C0.18764 5.8716 -0.00772842 5.11557 -0.000123584 4.34767C-0.00755851 3.77936 0.0987557 3.21539 0.312438 2.68961C0.526121 2.16383 0.842766 1.68708 1.24337 1.28797C1.63319 0.871868 2.10458 0.5424 2.62748 0.320585C3.15038 0.0987692 3.71331 -0.0105238 4.28036 -0.000322905C4.84559 -0.00600939 5.40599 0.105372 5.92695 0.326948C6.44792 0.548524 6.91841 0.875594 7.30938 1.28797C7.71724 1.6832 8.04078 2.15851 8.26011 2.68468C8.47943 3.21086 8.58991 3.77678 8.58476 4.34767Z" fill="#95C11F"/>
<path fill-rule="evenodd" clip-rule="evenodd" d="M34.6663 32.4407H26.6952V20.1294C26.7188 19.0032 26.5097 17.8843 26.0814 16.8442C25.6749 15.9102 24.7822 15.4432 23.4111 15.4432C22.8168 15.4327 22.2279 15.5594 21.6894 15.8136C21.1972 16.058 20.7476 16.3817 20.3582 16.7718C19.9975 17.1154 19.6668 17.4899 19.3698 17.891C19.0988 18.2453 18.8277 18.6318 18.5727 19.0344V32.4407H10.6016V9.61369H18.5727V12.8827C19.6122 11.6804 20.8881 10.7097 22.3191 10.0324C23.661 9.4758 25.1013 9.20181 26.5517 9.2272C31.9668 9.2272 34.6743 12.5016 34.6743 19.0505L34.6663 32.4407Z" fill="#0069B4"/>
<path fill-rule="evenodd" clip-rule="evenodd" d="M52.7208 18.9861C52.7847 17.7241 52.4034 16.4802 51.6447 15.4755C51.2609 15.0332 50.7818 14.6856 50.2443 14.4595C49.7067 14.2334 49.1251 14.1347 48.5439 14.1711C47.9498 14.153 47.3586 14.262 46.8091 14.491C46.2596 14.72 45.7642 15.0637 45.3555 15.4996C44.5098 16.4549 44.0666 17.7057 44.12 18.9861H52.7208ZM60.2216 23.012H44.2794C44.5896 24.398 45.4067 25.6145 46.5671 26.4179C47.7655 27.2991 49.2139 27.7651 50.6961 27.7465C53.8015 27.6445 56.8478 26.8615 59.6238 25.4517V30.4519C58.2612 31.1464 56.8358 31.7072 55.3672 32.1267C53.2873 32.6799 51.1403 32.932 48.9903 32.8755C46.5285 32.95 44.0865 32.4107 41.8801 31.3054C40.0298 30.3606 38.5026 28.8768 37.496 27.046C36.5245 25.1614 36.0418 23.0588 36.0931 20.9346C36.0564 18.8294 36.556 16.7499 37.5438 14.8958C38.5516 13.0878 40.0809 11.6329 41.9279 10.7249C44.1457 9.65818 46.5828 9.13934 49.0381 9.21115C50.8734 9.21301 52.6858 9.6226 54.3469 10.4109C56.1123 11.2607 57.5842 12.6269 58.5716 14.3321C59.7522 16.4769 60.3232 18.9095 60.2216 21.3614V23.012Z" fill="#0069B4"/>
<path fill-rule="evenodd" clip-rule="evenodd" d="M102.493 32.4406H94.5215V20.2662C94.6029 19.0063 94.3263 17.7493 93.7243 16.6428C93.448 16.2406 93.0724 15.9184 92.6347 15.7079C92.1971 15.4975 91.7127 15.4062 91.2294 15.4431C90.7268 15.4213 90.225 15.5005 89.7529 15.676C89.2809 15.8516 88.848 16.12 88.4793 16.4657C87.6851 17.2464 86.972 18.107 86.3511 19.0342V32.4406H78.38V20.2662C78.4484 19.0338 78.1985 17.8045 77.6546 16.6992C77.3775 16.2689 76.9884 15.924 76.53 15.7025C76.0716 15.4809 75.5616 15.3911 75.056 15.4431C74.5045 15.442 73.9597 15.5659 73.4618 15.8054C73.0198 16.0101 72.6112 16.2816 72.2502 16.6106C71.8425 17.0233 71.4643 17.4646 71.1183 17.9311C70.6799 18.5189 70.3929 18.8812 70.2734 19.0342V32.4406H62.3022V9.61357H70.2734V12.8826C71.3077 11.7212 72.5523 10.7701 73.9401 10.0806C75.2933 9.47115 76.7632 9.17145 78.2445 9.20293C78.9832 9.19988 79.7203 9.27272 80.4445 9.42033C81.1576 9.56369 81.8472 9.80764 82.493 10.145C83.1822 10.5009 83.803 10.9781 84.3264 11.5541C84.8647 12.1839 85.286 12.9067 85.5699 13.6878C86.699 12.3581 88.0474 11.2357 89.5554 10.3704C91.0327 9.60125 92.6765 9.21656 94.3381 9.25124C95.9225 9.19776 97.4919 9.576 98.8816 10.3463C100.102 11.0823 101.053 12.1983 101.592 13.5268C102.215 15.1279 102.513 16.8393 102.469 18.5592L102.493 32.4406Z" fill="#0069B4"/>
<path fill-rule="evenodd" clip-rule="evenodd" d="M116.562 26.3939C116.071 27 115.466 27.5016 114.782 27.8693C114.098 28.237 113.348 28.4635 112.576 28.5356C112.035 28.6133 111.485 28.5699 110.962 28.4084C110.44 28.247 109.96 27.9716 109.555 27.6016C109.174 27.1436 108.93 26.5847 108.853 25.9913C108.708 25.2304 108.854 24.4422 109.26 23.7851C109.87 23.0593 110.655 22.5046 111.54 22.1747C111.588 22.1747 112.289 21.8848 113.66 21.3695C114.891 20.9182 116.07 20.3323 117.175 19.6223H117.215L117.55 21.9975C117.697 22.7618 117.687 23.5485 117.521 24.3088C117.355 25.0691 117.037 25.787 116.585 26.418L116.562 26.3939ZM125.951 26.9414C125.762 26.9495 125.576 26.8938 125.421 26.783C125.267 26.6722 125.153 26.5126 125.099 26.3294C124.919 25.7214 124.841 25.0873 124.867 24.4534V15.6446C124.908 14.6273 124.704 13.615 124.272 12.695C123.841 11.7749 123.194 10.9745 122.388 10.3626C120.738 9.08239 118.283 8.44629 115.007 8.44629C113.727 8.4459 112.449 8.55906 111.189 8.78447C109.967 9.00572 108.768 9.34547 107.61 9.799C106.479 10.2519 105.408 10.8442 104.422 11.5624V17.7542C105.632 16.5473 107.016 15.532 108.527 14.7428C110.032 13.967 111.7 13.5693 113.389 13.5834C114.864 13.5834 115.828 13.8974 116.275 14.5254C116.759 15.301 116.991 16.2107 116.936 17.1262C116.649 17.2777 116.354 17.4121 116.051 17.5288C115.772 17.6334 115.342 17.7784 114.776 17.9636L112.257 18.7688C110.648 19.2632 109.074 19.8685 107.546 20.5804C106.445 21.1039 105.477 21.8751 104.716 22.8349C103.969 23.8434 103.584 25.0786 103.624 26.3375C103.628 27.2741 103.838 28.1982 104.238 29.0429C104.702 29.9765 105.447 30.7376 106.366 31.2169C107.601 31.8406 108.973 32.137 110.352 32.0785C111.76 32.131 113.164 31.8983 114.481 31.3941C115.512 30.9545 116.475 30.3689 117.343 29.6549C117.543 30.3247 117.917 30.9281 118.427 31.4021C119.234 31.961 120.211 32.2121 121.185 32.1107C122.389 32.1324 123.59 31.9889 124.756 31.6839C125.855 31.3658 126.938 30.9923 128 30.5647V26.2972C127.369 26.6613 126.667 26.8812 125.944 26.9414H125.951Z" fill="#0069B4"/>
<path d="M0.980474 35.5327H0.366699V40.9436H0.980474V35.5327Z" fill="#646363"/>
<path fill-rule="evenodd" clip-rule="evenodd" d="M1.95312 40.9355V35.5327H2.52704L3.50749 38.069C3.73068 38.6488 4.00967 39.3654 4.19301 39.9532C4.14518 39.0997 4.12127 38.3992 4.12127 37.4652V35.5327H4.67127V40.9355H4.11329L3.10096 38.3428C2.85164 37.7409 2.63608 37.1253 2.4553 36.4989C2.50313 37.2236 2.51907 37.9161 2.51907 39.0675V40.9355H1.95312Z" fill="#646363"/>
<path fill-rule="evenodd" clip-rule="evenodd" d="M5.51621 40.2592C5.75734 40.4037 6.03297 40.4789 6.31332 40.4766C6.43414 40.4797 6.55421 40.4566 6.66542 40.4088C6.77664 40.361 6.87641 40.2897 6.95801 40.1996C7.03961 40.1096 7.10113 40.0029 7.13843 39.8868C7.17572 39.7706 7.18792 39.6478 7.1742 39.5265C7.15891 39.2936 7.08593 39.0683 6.96197 38.8714C6.83801 38.6744 6.66704 38.5121 6.46477 38.3992C6.18933 38.2501 5.95353 38.0362 5.77731 37.7755C5.60109 37.5148 5.48966 37.215 5.45244 36.9016C5.44561 36.7123 5.47776 36.5236 5.54686 36.3474C5.61595 36.1713 5.7205 36.0116 5.85387 35.8784C5.98723 35.7452 6.14653 35.6414 6.32166 35.5736C6.49679 35.5058 6.68395 35.4754 6.8713 35.4845C7.13508 35.4769 7.39538 35.5468 7.62058 35.6858L7.48507 36.2333C7.2958 36.1081 7.07355 36.0436 6.84738 36.0481C6.74057 36.0396 6.63321 36.0546 6.53269 36.0921C6.43217 36.1296 6.34088 36.1886 6.26512 36.2651C6.18936 36.3417 6.13092 36.4339 6.09383 36.5354C6.05674 36.6369 6.04188 36.7454 6.05027 36.8533C6.05027 37.3928 6.32926 37.6021 6.84738 37.9725C7.11297 38.1211 7.33748 38.3345 7.50039 38.5933C7.6633 38.8521 7.75943 39.148 7.78 39.454C7.79394 39.6572 7.76486 39.861 7.6947 40.0519C7.62454 40.2428 7.51491 40.4164 7.37312 40.5612C7.23133 40.7059 7.06062 40.8185 6.87238 40.8914C6.68414 40.9643 6.48269 40.9958 6.28144 40.9839C5.96836 40.9895 5.6597 40.9088 5.38867 40.7504L5.51621 40.2592Z" fill="#646363"/>
<path fill-rule="evenodd" clip-rule="evenodd" d="M9.13474 36.0802H8.1543V35.5327H10.721V36.0802H9.74852V40.9355H9.13474V36.0802Z" fill="#646363"/>
<path d="M11.9326 35.5327H11.3188V40.9436H11.9326V35.5327Z" fill="#646363"/>
<path fill-rule="evenodd" clip-rule="evenodd" d="M13.5268 36.0802H12.5464V35.5327H15.1131V36.0802H14.1406V40.9355H13.5268V36.0802Z" fill="#646363"/>
<path fill-rule="evenodd" clip-rule="evenodd" d="M16.3169 35.5327V39.156C16.3169 40.1303 16.6437 40.4604 17.0343 40.4604C17.4249 40.4604 17.7836 40.1062 17.7836 39.156V35.5327H18.3974V39.0594C18.3974 40.4685 17.8234 40.9999 17.0263 40.9999C16.2292 40.9999 15.7031 40.4765 15.7031 39.1319V35.5327H16.3169Z" fill="#646363"/>
<path fill-rule="evenodd" clip-rule="evenodd" d="M19.9678 36.0802H18.9873V35.5327H21.554V36.0802H20.5815V40.9355H19.9678V36.0802Z" fill="#646363"/>
<path fill-rule="evenodd" clip-rule="evenodd" d="M22.319 38.2381C22.319 39.3493 22.5342 40.4604 23.2197 40.4604C23.9052 40.4604 24.0806 39.2768 24.0806 38.222C24.0806 37.1672 23.8973 36.0158 23.2118 36.0158C22.5262 36.0158 22.319 37.135 22.319 38.2381ZM24.7103 38.1978C24.7103 40.2269 24.0248 40.9999 23.1639 40.9999C22.3031 40.9999 21.6733 40.0498 21.6733 38.23C21.6733 36.4103 22.319 35.4683 23.2676 35.4683C24.2161 35.4683 24.7103 36.4667 24.7103 38.1978Z" fill="#646363"/>
<path fill-rule="evenodd" clip-rule="evenodd" d="M27.3011 40.4443C27.378 40.4513 27.4554 40.4513 27.5323 40.4443C28.2019 40.4443 28.8555 39.9451 28.8555 38.1092C28.8555 36.7404 28.441 35.9997 27.5881 35.9997C27.4926 35.9909 27.3966 35.9909 27.3011 35.9997V40.404V40.4443ZM26.6953 35.6132C26.9548 35.5405 27.2232 35.5052 27.4924 35.5085C27.9461 35.4795 28.3937 35.6263 28.7439 35.9191C29.0175 36.2082 29.2261 36.5535 29.3554 36.9315C29.4847 37.3095 29.5317 37.7112 29.4932 38.1092C29.5698 38.9263 29.3393 39.7426 28.8475 40.396C28.6562 40.5918 28.4256 40.7441 28.1713 40.8427C27.917 40.9413 27.6448 40.9839 27.3729 40.9676C27.1457 40.972 26.9187 40.9531 26.6953 40.9113V35.6132Z" fill="#646363"/>
<path fill-rule="evenodd" clip-rule="evenodd" d="M30.6328 38.2381C30.6328 39.3493 30.848 40.4604 31.5335 40.4604C32.2191 40.4604 32.4024 39.2768 32.4024 38.222C32.4024 37.1672 32.2191 36.0158 31.5256 36.0158C30.8321 36.0158 30.6328 37.135 30.6328 38.2381ZM33.0241 38.1978C33.0241 40.2269 32.3466 40.9999 31.4777 40.9999C30.6089 40.9999 29.9951 40.0498 29.9951 38.23C29.9951 36.4103 30.6328 35.4683 31.5893 35.4683C32.5459 35.4683 33.0321 36.4667 33.0321 38.1978H33.0241Z" fill="#646363"/>
<path fill-rule="evenodd" clip-rule="evenodd" d="M38.2614 38.6486C38.2216 37.94 38.1817 37.1429 38.2056 36.5309C38.0861 37.1348 37.9426 37.779 37.7752 38.4151L37.1295 40.9433H36.6672L36.0455 38.5278C35.8621 37.8434 35.7107 37.1751 35.5991 36.547C35.5991 37.1831 35.5991 37.94 35.5353 38.7049L35.4317 40.9917H34.8896L35.2005 35.5889H35.8701L36.4918 38.0608C36.6752 38.7693 36.8107 39.3008 36.9223 39.9208C37.0259 39.3008 37.1455 38.7854 37.3129 38.0608L37.9187 35.5889H38.6042L38.9151 40.9917H38.3411L38.2614 38.6486Z" fill="#646363"/>
<path fill-rule="evenodd" clip-rule="evenodd" d="M41.7205 38.375H40.3814V40.4041H41.9118V40.9355H39.7676V35.5327H41.8082V36.0722H40.3814V37.8516H41.7205V38.375Z" fill="#646363"/>
<path d="M43.1953 35.5327H42.5815V40.9436H43.1953V35.5327Z" fill="#646363"/>
<path fill-rule="evenodd" clip-rule="evenodd" d="M44.5742 38.2381C44.5742 39.3493 44.7894 40.4604 45.4749 40.4604C46.1605 40.4604 46.3438 39.2768 46.3438 38.222C46.3438 37.1672 46.1605 36.0158 45.467 36.0158C44.7735 36.0158 44.5742 37.135 44.5742 38.2381ZM46.9655 38.1978C46.9655 40.2269 46.288 40.9999 45.4191 40.9999C44.5503 40.9999 43.9365 40.0498 43.9365 38.23C43.9365 36.4103 44.5742 35.4683 45.5307 35.4683C46.4873 35.4683 46.9735 36.4667 46.9735 38.1978H46.9655Z" fill="#646363"/>
<path fill-rule="evenodd" clip-rule="evenodd" d="M50.704 38.8176L50.425 37.4488C50.3453 37.0623 50.2736 36.6436 50.2098 36.2088C50.146 36.6195 50.0663 37.0865 49.9866 37.4488L49.7076 38.8176H50.704ZM49.596 39.3168L49.2453 40.9272H48.6235L49.8511 35.5244H50.5286L51.7163 40.9272H51.1105L50.7678 39.3168H49.596Z" fill="#646363"/>
<path fill-rule="evenodd" clip-rule="evenodd" d="M55.5904 38.6486C55.5904 37.94 55.5107 37.1429 55.5346 36.5309C55.415 37.1348 55.2715 37.779 55.1042 38.4151L54.4505 40.9433H54.052L53.4302 38.5278C53.2469 37.8434 53.1034 37.1751 52.9918 36.547C52.9918 37.1831 52.9918 37.94 52.928 38.7049L52.8244 40.9917H52.2744L52.5933 35.5889H53.2628L53.8766 38.0608C54.0599 38.7693 54.1954 39.3008 54.307 39.9208C54.4107 39.3008 54.5302 38.7854 54.7056 38.0608L55.3114 35.5889H55.9889L56.2998 40.9917H55.7259L55.5904 38.6486Z" fill="#646363"/>
<path fill-rule="evenodd" clip-rule="evenodd" d="M57.7269 40.4521C57.8275 40.4641 57.9292 40.4641 58.0298 40.4521C58.1719 40.4634 58.3147 40.4431 58.4481 40.3926C58.5815 40.342 58.7023 40.2625 58.8019 40.1595C58.9016 40.0566 58.9776 39.9328 59.0246 39.7969C59.0716 39.661 59.0885 39.5163 59.074 39.3731C59.0833 39.2265 59.0616 39.0796 59.0105 38.9421C58.9594 38.8046 58.88 38.6796 58.7776 38.5753C58.6751 38.4711 58.5519 38.3899 58.4162 38.3373C58.2804 38.2847 58.1351 38.2618 57.9899 38.27H57.7269V40.4199V40.4521ZM57.7269 37.8272H57.9979C58.122 37.8283 58.2451 37.8042 58.3598 37.7562C58.4745 37.7083 58.5785 37.6375 58.6655 37.548C58.7526 37.4586 58.8209 37.3524 58.8664 37.2358C58.9119 37.1191 58.9337 36.9944 58.9305 36.869C58.942 36.7495 58.9269 36.6289 58.8862 36.516C58.8456 36.4031 58.7805 36.3009 58.6956 36.2167C58.6108 36.1326 58.5084 36.0687 58.396 36.0297C58.2835 35.9907 58.1638 35.9776 58.0457 35.9914C57.9401 35.975 57.8326 35.975 57.7269 35.9914V37.8433V37.8272ZM57.1211 35.6129C57.4107 35.5416 57.7078 35.5064 58.0059 35.5083C58.4352 35.4754 58.8606 35.6109 59.1936 35.8867C59.3125 36.0063 59.4052 36.1498 59.4657 36.3079C59.5261 36.4661 59.5529 36.6353 59.5443 36.8046C59.551 37.0634 59.4779 37.3179 59.3351 37.5328C59.1923 37.7478 58.9868 37.9126 58.7472 38.0043C59.0468 38.0792 59.3108 38.2582 59.493 38.5099C59.6751 38.7617 59.7638 39.0701 59.7436 39.3812C59.756 39.7768 59.6192 40.1624 59.361 40.4601C59.1706 40.6357 58.9462 40.7693 58.7019 40.8525C58.4576 40.9357 58.1989 40.9666 57.9421 40.9432C57.6753 40.9497 57.4084 40.9308 57.145 40.8869L57.1211 35.6129Z" fill="#646363"/>
<path d="M61.0269 35.5327H60.4131V40.9436H61.0269V35.5327Z" fill="#646363"/>
<path fill-rule="evenodd" clip-rule="evenodd" d="M63.9519 38.375H62.6048V40.4041H64.1353V40.9355H61.999V35.5327H64.0396V36.0722H62.6048V37.8516H63.9519V38.375Z" fill="#646363"/>
<path fill-rule="evenodd" clip-rule="evenodd" d="M64.813 40.9355V35.5327H65.363L66.3514 38.069C66.5746 38.6488 66.8456 39.3654 67.029 39.9532C66.9811 39.0997 66.9572 38.3992 66.9572 37.4652V35.5327H67.4993V40.9355H66.9572L65.9449 38.3428C65.6956 37.7409 65.48 37.1253 65.2992 36.4989C65.3471 37.2236 65.363 37.9161 65.363 39.0675V40.9355H64.813Z" fill="#646363"/>
<path fill-rule="evenodd" clip-rule="evenodd" d="M69.1253 36.0802H68.1528V35.5327H70.7195V36.0802H69.7391V40.9355H69.1253V36.0802Z" fill="#646363"/>
<path fill-rule="evenodd" clip-rule="evenodd" d="M73.2703 38.375H71.9232V40.4041H73.4536V40.9355H71.3174V35.5327H73.358V36.0722H71.9232V37.8516H73.2703V38.375Z" fill="#646363"/>
<path fill-rule="evenodd" clip-rule="evenodd" d="M77.3274 38.375H75.9883V40.4041H77.5108V40.9355H75.3745V35.5327H77.4151V36.0722H75.9883V37.8516H77.3274V38.375Z" fill="#646363"/>
<path fill-rule="evenodd" clip-rule="evenodd" d="M80.0457 38.1092H80.3088C80.4462 38.1132 80.5829 38.0877 80.7099 38.0344C80.8368 37.9811 80.9512 37.9012 81.0453 37.8C81.1395 37.6988 81.2113 37.5786 81.2561 37.4473C81.3009 37.316 81.3176 37.1766 81.3052 37.0383C81.3052 36.4103 81.0501 36.0318 80.4044 36.0157C80.2957 36.0053 80.1863 36.0053 80.0776 36.0157V38.0931L80.0457 38.1092ZM79.4399 35.6131C79.7264 35.5397 80.0212 35.5046 80.3168 35.5085C80.5327 35.4899 80.7501 35.5145 80.9566 35.5808C81.1632 35.6471 81.3547 35.7538 81.5204 35.8949C81.6723 36.0796 81.7815 36.2962 81.8398 36.5289C81.8981 36.7617 81.9042 37.0047 81.8576 37.2401C81.811 37.4755 81.7129 37.6974 81.5704 37.8896C81.4279 38.0818 81.2447 38.2393 81.0342 38.3508C81.4327 38.4635 81.64 38.85 81.7516 39.5585C81.8116 40.0212 81.9157 40.4769 82.0624 40.9193H81.4407C81.302 40.4871 81.2059 40.042 81.1537 39.5907C81.0342 38.8419 80.803 38.5682 80.2849 38.5682H80.0457V40.9193H79.4399V35.6131Z" fill="#646363"/>
<path fill-rule="evenodd" clip-rule="evenodd" d="M84.637 38.375H83.2899V40.4041H84.8203V40.9355H82.6841V35.5327H84.7247V36.0722H83.2899V37.8516H84.637V38.375Z" fill="#646363"/>
<path fill-rule="evenodd" clip-rule="evenodd" d="M87.8334 40.8386C87.583 40.9506 87.3097 41.0003 87.0363 40.9836C85.9921 40.9836 85.2349 40.1784 85.2349 38.3023C85.2349 36.1605 86.287 35.4842 87.14 35.4842C87.366 35.4708 87.5915 35.518 87.7936 35.621L87.6581 36.1364C87.493 36.0602 87.3134 36.0217 87.132 36.0236C86.5581 36.0236 85.8805 36.5873 85.8805 38.2459C85.8805 39.9046 86.4863 40.4441 87.1479 40.4441C87.3369 40.4439 87.5239 40.4056 87.6979 40.3314L87.8334 40.8386Z" fill="#646363"/>
<path fill-rule="evenodd" clip-rule="evenodd" d="M89.0609 35.5327V39.156C89.0609 40.1303 89.3877 40.4604 89.7783 40.4604C90.1689 40.4604 90.5276 40.1062 90.5276 39.156V35.5327H91.1414V39.0594C91.1414 40.4685 90.5674 40.9999 89.7703 40.9999C88.9732 40.9999 88.479 40.4765 88.479 39.1319V35.5327H89.0609Z" fill="#646363"/>
<path fill-rule="evenodd" clip-rule="evenodd" d="M92.6961 38.1092H92.9592C93.0946 38.1098 93.2287 38.0817 93.3528 38.0269C93.4768 37.9721 93.5882 37.8917 93.6798 37.7909C93.7713 37.6901 93.841 37.5711 93.8844 37.4415C93.9278 37.3119 93.9439 37.1746 93.9317 37.0383C93.9317 36.4103 93.6766 36.0318 93.0229 36.0157C92.9143 36.0053 92.8048 36.0053 92.6961 36.0157V38.0931V38.1092ZM92.0903 35.6131C92.3768 35.5397 92.6716 35.5046 92.9672 35.5085C93.1833 35.4867 93.4015 35.5097 93.6085 35.5762C93.8155 35.6426 94.0068 35.7511 94.1708 35.8949C94.323 36.0791 94.4326 36.2952 94.4915 36.5276C94.5505 36.7599 94.5573 37.0027 94.5114 37.2381C94.4656 37.4734 94.3683 37.6955 94.2266 37.888C94.0849 38.0805 93.9024 38.2386 93.6925 38.3508C94.0911 38.4635 94.2904 38.85 94.402 39.5585C94.462 40.0212 94.5661 40.4769 94.7128 40.9193H94.0991C93.9604 40.4871 93.8643 40.042 93.8121 39.5907C93.6925 38.8419 93.4614 38.5682 92.9353 38.5682H92.6961V40.9193H92.0903V35.6131Z" fill="#646363"/>
<path fill-rule="evenodd" clip-rule="evenodd" d="M95.2146 40.2593C95.4557 40.4037 95.7314 40.4789 96.0117 40.4767C96.1322 40.4839 96.2528 40.465 96.3655 40.4212C96.4781 40.3775 96.5802 40.3098 96.6648 40.2228C96.7494 40.1359 96.8145 40.0316 96.8559 39.917C96.8972 39.8025 96.9138 39.6803 96.9045 39.5587C96.8893 39.3268 96.8172 39.1024 96.6948 38.9056C96.5723 38.7088 96.4033 38.5459 96.203 38.4315C95.9276 38.2824 95.6918 38.0684 95.5156 37.8077C95.3394 37.547 95.2279 37.2473 95.1907 36.9338C95.1827 36.7449 95.2138 36.5564 95.282 36.3803C95.3502 36.2041 95.454 36.0443 95.5867 35.911C95.7195 35.7776 95.8783 35.6737 96.053 35.6058C96.2278 35.5379 96.4146 35.5076 96.6016 35.5167C96.8654 35.5091 97.1257 35.5791 97.3509 35.718L97.2074 36.2414C97.0181 36.1162 96.7959 36.0517 96.5697 36.0562C96.4629 36.0477 96.3555 36.0627 96.255 36.1002C96.1545 36.1377 96.0632 36.1967 95.9874 36.2732C95.9117 36.3497 95.8532 36.442 95.8161 36.5435C95.7791 36.645 95.7642 36.7535 95.7726 36.8614C95.7726 37.4009 96.0516 37.6102 96.5697 37.9806C96.8293 38.132 97.048 38.3456 97.2065 38.6025C97.3649 38.8595 97.4583 39.152 97.4784 39.4541C97.4887 39.6556 97.457 39.8571 97.3854 40.0455C97.3137 40.2338 97.2037 40.4049 97.0624 40.5476C96.9211 40.6903 96.7518 40.8014 96.5653 40.8738C96.3788 40.9462 96.1794 40.9782 95.9798 40.9678C95.6644 40.9721 95.3535 40.8915 95.0791 40.7343L95.2146 40.2593Z" fill="#646363"/>
<path fill-rule="evenodd" clip-rule="evenodd" d="M98.6186 38.2381C98.6186 39.3493 98.8259 40.4604 99.5114 40.4604C100.197 40.4604 100.38 39.2768 100.38 38.222C100.38 37.1672 100.197 36.0158 99.5034 36.0158C98.8099 36.0158 98.6186 37.135 98.6186 38.2381ZM101.01 38.1978C101.01 40.2269 100.324 40.9999 99.4157 40.9999C98.507 40.9999 97.9331 40.0498 97.9331 38.23C97.9331 36.4103 98.5788 35.4683 99.5273 35.4683C100.476 35.4683 101.018 36.4667 101.018 38.1978H101.01Z" fill="#646363"/>
<path fill-rule="evenodd" clip-rule="evenodd" d="M101.624 40.2589C101.865 40.4034 102.141 40.4785 102.421 40.4763C102.542 40.4848 102.664 40.4668 102.777 40.4235C102.891 40.3803 102.994 40.3128 103.079 40.2257C103.165 40.1386 103.231 40.0339 103.273 39.9187C103.314 39.8036 103.331 39.6807 103.322 39.5584C103.306 39.3255 103.233 39.1002 103.109 38.9033C102.985 38.7063 102.814 38.5439 102.612 38.4311C102.337 38.282 102.101 38.068 101.925 37.8073C101.749 37.5466 101.637 37.2469 101.6 36.9335C101.606 36.6812 101.677 36.4349 101.806 36.2189C101.935 36.0029 102.118 35.8246 102.336 35.7018C102.554 35.579 102.8 35.5159 103.05 35.5186C103.3 35.5214 103.545 35.59 103.76 35.7177L103.625 36.233C103.438 36.1075 103.219 36.0429 102.995 36.0478C102.888 36.0393 102.781 36.0543 102.68 36.0918C102.58 36.1292 102.488 36.1883 102.413 36.2648C102.337 36.3413 102.278 36.4335 102.241 36.5351C102.204 36.6366 102.189 36.7451 102.198 36.853C102.198 37.3924 102.477 37.6018 102.995 37.9722C103.252 38.1267 103.468 38.3426 103.624 38.6008C103.779 38.8591 103.87 39.1519 103.888 39.4537C103.899 39.6556 103.868 39.8576 103.797 40.0465C103.726 40.2355 103.616 40.4071 103.474 40.5501C103.333 40.693 103.163 40.8041 102.976 40.8761C102.789 40.948 102.589 40.9792 102.389 40.9675C102.074 40.9717 101.763 40.8911 101.488 40.734L101.624 40.2589Z" fill="#646363"/>
<path fill-rule="evenodd" clip-rule="evenodd" d="M106.47 35.5327V37.8516H107.969V35.5327H108.583V40.9355H107.969V38.4072H106.47V40.9355H105.856V35.5327H106.47Z" fill="#646363"/>
<path fill-rule="evenodd" clip-rule="evenodd" d="M110.144 35.5325V40.9353H109.539V35.5325H110.144ZM110.902 34.373L109.921 35.2426H109.435L110.176 34.373H110.902Z" fill="#646363"/>
<path fill-rule="evenodd" clip-rule="evenodd" d="M111.731 40.4443C111.808 40.4513 111.885 40.4513 111.962 40.4443C112.632 40.4443 113.285 39.9451 113.285 38.1092C113.285 36.7404 112.871 35.9997 112.018 35.9997C111.922 35.9909 111.826 35.9909 111.731 35.9997V40.404V40.4443ZM111.125 35.6132C111.384 35.5405 111.653 35.5052 111.922 35.5085C112.376 35.4795 112.823 35.6263 113.174 35.9191C113.443 36.2103 113.647 36.5566 113.772 36.9344C113.897 37.3123 113.941 37.713 113.899 38.1092C113.976 38.9263 113.745 39.7426 113.253 40.396C113.062 40.5914 112.831 40.7434 112.577 40.842C112.323 40.9405 112.05 40.9834 111.779 40.9676C111.551 40.972 111.324 40.9531 111.101 40.9113L111.125 35.6132Z" fill="#646363"/>
<path fill-rule="evenodd" clip-rule="evenodd" d="M115.262 38.1091H115.525C115.661 38.1096 115.795 38.0816 115.919 38.0268C116.043 37.972 116.154 37.8916 116.246 37.7908C116.337 37.69 116.407 37.571 116.45 37.4414C116.494 37.3118 116.51 37.1744 116.498 37.0382C116.498 36.4101 116.242 36.0317 115.589 36.0156C115.48 36.0052 115.371 36.0052 115.262 36.0156V38.093V38.1091ZM114.656 35.613C114.943 35.5396 115.238 35.5044 115.533 35.5083C115.75 35.4891 115.969 35.5134 116.177 35.5797C116.385 35.646 116.578 35.7531 116.745 35.8948C116.872 36.0376 116.969 36.2043 117.032 36.3853C117.095 36.5663 117.122 36.7581 117.111 36.9496C117.13 37.2435 117.058 37.5361 116.905 37.787C116.752 38.0378 116.527 38.2348 116.258 38.3506C116.657 38.4634 116.864 38.8499 116.976 39.5584C117.031 40.0212 117.132 40.4772 117.279 40.9192H116.665C116.526 40.4869 116.43 40.0419 116.378 39.5906C116.258 38.8418 116.027 38.568 115.501 38.568H115.262V40.9192H114.656V35.613Z" fill="#646363"/>
<path d="M118.514 35.5327H117.9V40.9436H118.514V35.5327Z" fill="#646363"/>
<path fill-rule="evenodd" clip-rule="evenodd" d="M121.822 40.8389C121.572 40.9508 121.298 41.0005 121.025 40.9838C119.981 40.9838 119.224 40.1786 119.224 38.3025C119.224 36.1608 120.276 35.4844 121.129 35.4844C121.355 35.4702 121.58 35.5175 121.782 35.6213L121.647 36.1366C121.482 36.0594 121.302 36.0209 121.121 36.0239C120.547 36.0239 119.869 36.5875 119.869 38.2462C119.869 39.9049 120.475 40.4443 121.137 40.4443C121.326 40.445 121.513 40.4067 121.687 40.3316L121.822 40.8389Z" fill="#646363"/>
<path fill-rule="evenodd" clip-rule="evenodd" d="M122.755 38.2381C122.755 39.3493 122.97 40.4604 123.656 40.4604C124.341 40.4604 124.517 39.2768 124.517 38.222C124.517 37.1672 124.333 36.0158 123.648 36.0158C122.962 36.0158 122.755 37.135 122.755 38.2381ZM125.146 38.1978C125.146 40.2269 124.461 40.9999 123.6 40.9999C122.739 40.9999 122.109 40.0498 122.109 38.23C122.109 36.4103 122.755 35.4683 123.704 35.4683C124.652 35.4683 125.146 36.4667 125.146 38.1978Z" fill="#646363"/>
<path fill-rule="evenodd" clip-rule="evenodd" d="M125.736 40.2593C125.965 40.3982 126.226 40.4733 126.493 40.4767C126.614 40.4851 126.736 40.4671 126.85 40.4239C126.963 40.3806 127.066 40.3132 127.152 40.226C127.237 40.1389 127.303 40.0342 127.345 39.9191C127.387 39.8039 127.404 39.681 127.394 39.5587C127.379 39.3259 127.306 39.1006 127.182 38.9036C127.058 38.7067 126.887 38.5443 126.685 38.4315C126.41 38.2819 126.176 38.0677 126.001 37.807C125.826 37.5462 125.716 37.2467 125.68 36.9338C125.672 36.7449 125.703 36.5564 125.772 36.3803C125.84 36.2041 125.944 36.0443 126.076 35.911C126.209 35.7776 126.368 35.6737 126.543 35.6058C126.717 35.5379 126.904 35.5076 127.091 35.5167C127.355 35.5091 127.615 35.5791 127.84 35.718L127.697 36.2414C127.508 36.1162 127.285 36.0517 127.059 36.0562C126.952 36.0477 126.845 36.0627 126.745 36.1002C126.644 36.1377 126.553 36.1967 126.477 36.2732C126.401 36.3497 126.343 36.442 126.306 36.5435C126.269 36.645 126.254 36.7535 126.262 36.8614C126.262 37.4009 126.541 37.6102 127.059 37.9806C127.325 38.128 127.55 38.3399 127.714 38.5972C127.878 38.8544 127.976 39.1489 128 39.4541C128.01 39.6563 127.978 39.8585 127.906 40.0475C127.834 40.2364 127.723 40.4079 127.581 40.5507C127.439 40.6936 127.269 40.8045 127.081 40.8764C126.894 40.9483 126.694 40.9794 126.493 40.9678C126.18 40.9722 125.872 40.8916 125.601 40.7343L125.736 40.2593Z" fill="#646363"/>
</g>
<defs>
<clipPath id="clip0_159_683">
<rect width="128" height="41" fill="white"/>
</clipPath>
</defs>
</svg>
