<svg width="408" height="151" viewBox="0 0 408 151" fill="none" xmlns="http://www.w3.org/2000/svg">
<path d="M46.7527 15.353C48.5657 16.45 49.4707 17.6766 49.4707 19.0357C49.4707 20.0815 49.1332 21.0338 48.4612 21.8957C47.7892 22.7577 46.9349 23.1886 45.8985 23.1886C44.8621 23.1886 43.4911 22.6914 41.7827 21.6999C38.7809 19.8735 35.364 18.9574 31.5349 18.9574C27.0307 18.9574 22.9806 20.8259 19.3845 24.5598C15.7883 28.2938 13.9873 32.7722 13.9873 37.9949C13.9873 44.1067 15.5793 48.9226 18.7632 52.4486C21.9472 55.9746 26.1765 57.7377 31.4572 57.7377C35.6507 57.7377 39.0258 56.3062 41.5885 53.4341C44.1512 50.562 45.4833 46.9999 45.5879 43.3352H36.8156C35.7284 43.3352 34.8861 42.8982 34.2917 42.193C33.6973 41.4878 33.3987 40.6711 33.3987 39.6283C33.3987 37.2264 34.6143 36.0059 37.0485 36.0059H49.1601C51.0747 36.0059 52.3829 36.4398 53.0818 37.4314C53.7807 38.4229 54.1302 39.8815 54.1302 41.8645C54.0794 48.8623 51.917 54.5793 47.6458 59.0456C43.3746 63.5119 37.6937 65.736 30.603 65.736C23.357 65.736 17.3385 63.2136 12.5506 58.1716C7.76275 53.1327 5.37031 46.587 5.37031 38.5464C5.37031 30.8705 7.99573 24.4062 13.2495 19.1563C18.5034 13.9064 24.701 11.2815 31.8455 11.2815C37.4368 11.2815 42.4039 12.6377 46.7527 15.353Z" fill="white"/>
<path d="M68.3295 11.9053C69.8319 11.9053 70.9699 11.9324 71.7465 11.9836C75.474 11.9836 79.4077 11.9565 83.5474 11.9053C87.6871 11.854 90.1483 11.8269 90.9219 11.8269C93.7175 11.8269 95.1154 13.0022 95.1154 15.3529C95.2199 17.5469 94.4165 18.8036 92.708 19.2195C91.57 19.2707 85.5904 19.2496 74.7721 19.2496H71.3761V26.8683V34.2307V35.4754H74.3838C76.8689 35.4754 81.0624 35.2825 86.9613 35.1258C88.616 35.1258 89.8347 35.3157 90.6112 35.8129C91.3878 36.3102 91.7492 37.2866 91.6985 38.7995C91.6985 41.2557 90.3514 42.4672 87.6603 42.4672C86.4685 42.4672 83.6609 42.4732 79.2374 42.5003C74.811 42.5275 72.1079 42.5365 71.1252 42.5365C71.0744 43.5822 71.0476 45.2488 71.0476 47.5483C71.0476 48.594 71.0356 50.2365 71.0087 52.4817C70.9818 54.7269 70.9699 56.3995 70.9699 57.4935C73.0398 57.5447 78.9417 57.5206 88.6728 57.4151C90.7427 57.3096 92.0121 57.2584 92.478 57.2584C94.754 57.2584 95.8949 58.5694 95.8949 61.128C95.8949 63.8433 94.4463 65.311 91.5461 65.311H70.6593C67.3977 65.311 65.3009 64.9795 64.2406 64.3798C63.1803 63.7801 62.556 62.4028 62.556 60.3143V57.4151C62.556 57.3639 62.5052 56.945 62.5321 56.1614C62.559 55.3779 62.553 54.2809 62.5769 52.8705C62.6038 51.4601 62.6128 49.8809 62.6396 48.1299C62.6665 46.379 62.6845 44.3176 62.7083 41.9398C62.7352 39.565 62.7442 37.2264 62.7442 34.9269C62.7442 32.8384 62.7561 29.677 62.78 25.4488C62.8069 21.2176 62.8189 18.0321 62.8189 15.8924C62.9742 13.2373 64.8111 11.9053 68.3295 11.9053Z" fill="white"/>
<path d="M212.978 15.7447C216.213 18.3576 217.856 21.8565 217.91 26.2414C217.91 28.9055 217.264 31.2411 215.968 33.2543C214.672 35.2675 212.99 36.7411 210.92 37.6814C213.871 38.3595 216.252 39.7187 218.065 41.7559C219.875 43.7932 220.783 46.3518 220.783 49.4348C220.783 54.0307 219.54 57.6351 217.055 60.245C214.57 62.8548 211.18 64.4431 206.885 64.859C204.609 65.1211 200.156 65.3231 193.531 65.3231H187.474C184.678 65.3231 183.107 63.554 182.952 60.1606L182.931 46.0655V30.1592C182.931 28.5921 182.991 26.3469 182.913 23.4236C182.835 20.5003 182.844 18.2521 182.844 16.685C182.844 15.4825 183.23 14.479 183.955 13.6683C184.681 12.8576 185.703 12.3754 186.996 12.2187C188.964 11.9565 193.525 11.8269 200.667 11.8269C205.637 11.8269 209.744 13.1348 212.978 15.7447ZM207.038 21.1905C205.329 19.9639 203.155 19.322 200.514 19.2707C197.097 19.2707 194.096 19.322 191.509 19.4275C191.509 21.0458 191.536 26.3469 191.587 35.3307C192.103 35.3307 193.54 35.3187 195.897 35.2916C198.253 35.2644 199.947 35.2524 200.983 35.2524C203.674 35.2012 205.798 34.3905 207.351 32.8233C208.904 31.2562 209.681 29.1406 209.681 26.4765C209.627 24.1801 208.746 22.417 207.038 21.1905ZM191.59 42.3918L191.667 57.9907H201.838C204.89 57.9907 207.387 57.2494 209.328 55.9444C211.27 54.6395 212.241 52.6113 212.241 49.9472C212.241 44.7757 208.746 42.214 201.76 42.214L191.59 42.3918Z" fill="white"/>
<path d="M230.404 56.8727L238.089 38.8537L247.637 14.8044C248.465 12.7672 250.072 11.7485 252.452 11.7485C255.143 11.7485 256.879 12.8184 257.655 14.9611C258.536 17.1009 260.23 21.4255 262.742 27.9261C265.254 34.4296 266.974 38.8296 267.906 41.1261C267.957 41.2316 268.127 41.5842 268.411 42.1839C268.695 42.7836 268.889 43.2417 268.993 43.5551C271.58 50.0828 273.703 55.2543 275.361 59.0666C275.827 60.1124 276.06 61.0527 276.06 61.8875C276.06 62.7765 275.594 63.5992 274.662 64.3557C273.73 65.1121 272.616 65.4918 271.323 65.4918C270.185 65.4918 269.304 65.2688 268.683 64.8258C268.061 64.3828 267.518 63.5872 267.052 62.4359C264.462 55.8028 263.118 52.2677 263.014 51.7463C261.201 51.6951 256.723 51.7102 249.582 51.7102H241.974C241.768 52.2346 241.186 53.7444 240.227 56.3302C239.268 58.9159 238.558 60.7362 238.092 61.8332C237.575 63.0869 237.043 63.991 236.5 64.5636C235.956 65.1392 235.141 65.4195 234.053 65.4195C232.706 65.4195 231.541 65.079 230.559 64.3979C229.576 63.7198 229.083 62.6981 229.083 61.342C229.083 60.242 229.522 58.7532 230.404 56.8727ZM244.379 44.7305C250.848 44.7305 256.207 44.6792 260.451 44.5737L252.608 22.3266C251.885 24.5206 249.14 31.9885 244.379 44.7305Z" fill="white"/>
<path d="M326.827 61.6525C326.827 64.2111 325.253 65.492 322.251 65.492C319.354 65.492 317.831 64.2111 317.831 61.6525V55.0706L317.825 43.3985C315.238 43.3985 311.224 43.4257 305.71 43.4769C300.197 43.5281 296.036 43.5552 293.19 43.5552L293.354 61.8876C293.354 64.2895 291.831 65.492 288.778 65.492C285.932 65.492 284.51 64.2654 284.51 61.8092C284.51 59.7207 284.549 55.4111 284.626 48.8835C284.704 42.3558 284.716 37.3139 284.665 33.7637L284.354 15.8232C284.354 13.1591 285.779 11.827 288.832 11.827C291.627 11.827 292.924 12.9481 292.924 15.1963V23.5021C292.924 27.4199 293.052 31.4402 293.103 35.5659C293.154 35.5659 294.02 35.578 295.6 35.6051C297.18 35.6322 298.873 35.6443 300.633 35.6443C301.98 35.6443 304.205 35.6322 307.284 35.6051C310.364 35.578 312.61 35.5659 314.008 35.5659L317.971 35.4876C317.971 33.1369 317.959 29.638 317.932 24.9909C317.905 20.3437 317.894 17.312 317.894 15.9046C317.944 13.0325 319.42 11.595 322.32 11.595C325.166 11.595 326.591 13.0054 326.591 15.8262C326.591 24.3911 326.564 32.0941 326.514 38.9352L326.827 61.6525Z" fill="white"/>
<path d="M339.357 15.7447C339.357 14.3343 339.784 13.2885 340.638 12.6104C341.492 11.9323 342.568 11.5918 343.861 11.5918C345.103 11.5918 346.047 11.9173 346.824 12.5712C347.6 13.2252 347.923 14.1504 347.923 15.3529V34.3904C347.923 35.6441 347.974 37.7839 347.947 40.8126C347.92 43.8414 347.941 45.8274 347.941 46.7677L348.034 61.1039C348.084 62.5655 347.717 63.6504 346.916 64.3556C346.113 65.0608 345.044 65.4134 343.7 65.4134C342.406 65.4134 341.346 65.0729 340.519 64.3948C339.691 63.7167 339.276 62.6981 339.276 61.3389C339.276 60.7121 339.291 59.603 339.315 58.0088C339.342 56.4175 339.354 55.203 339.354 54.3652L339.509 32.8986C339.512 30.551 339.461 24.831 339.357 15.7447Z" fill="white"/>
<path d="M357.681 56.8727L365.366 38.8537L374.915 14.8044C375.742 12.7672 377.349 11.7485 379.73 11.7485C382.421 11.7485 384.156 12.8184 384.933 14.9611C385.814 17.1009 387.507 21.4255 390.019 27.9261C392.531 34.4296 394.252 38.8296 395.184 41.1261C395.234 41.2316 395.405 41.5842 395.688 42.1839C395.972 42.7836 396.166 43.2417 396.271 43.5551C398.857 50.0828 400.981 55.2543 402.639 59.0666C403.105 60.1124 403.338 61.0527 403.338 61.8875C403.338 62.7765 402.872 63.5992 401.94 64.3557C401.008 65.1121 399.894 65.4918 398.6 65.4918C397.462 65.4918 396.581 65.2688 395.96 64.8258C395.339 64.3828 394.795 63.5872 394.329 62.4359C391.74 55.8028 390.396 52.2677 390.291 51.7463C388.478 51.6951 384.001 51.7102 376.859 51.7102H369.252C369.046 52.2346 368.463 53.7444 367.505 56.3302C366.546 58.9159 365.835 60.7362 365.369 61.8332C364.852 63.0869 364.321 63.991 363.777 64.5636C363.233 65.1392 362.418 65.4195 361.331 65.4195C359.984 65.4195 358.819 65.079 357.836 64.3979C356.854 63.7198 356.361 62.6981 356.361 61.342C356.361 60.242 356.8 58.7532 357.681 56.8727ZM371.656 44.7305C378.126 44.7305 383.484 44.6792 387.728 44.5737L379.888 22.3236C379.159 24.5206 376.417 31.9885 371.656 44.7305Z" fill="white"/>
<path d="M137.271 5.11547V13.4122C147.648 13.4122 157.101 20.0574 160.67 29.9514C162.946 36.256 162.65 43.079 159.84 49.1607C157.029 55.2423 152.038 59.8563 145.79 62.1497C143.036 63.1623 140.172 63.6746 137.277 63.6746C126.85 63.6746 117.448 57.0294 113.879 47.1355C111.603 40.8308 111.898 34.0078 114.709 27.9261C117.52 21.8445 122.511 17.2305 128.759 14.9371C131.513 13.9245 134.159 13.4122 137.274 13.4122V5.11547M137.268 5.03711C133.499 5.03711 129.664 5.69108 125.915 7.06533C108.687 13.3911 99.8047 32.6155 106.074 49.9985C110.981 63.5993 123.711 72.0467 137.271 72.0467C141.041 72.0467 144.876 71.3927 148.624 70.0185C165.852 63.6927 174.735 44.4713 168.466 27.0853C163.561 13.4845 150.829 5.03711 137.268 5.03711Z" fill="white"/>
<path d="M129.96 41.3039C126.059 30.4938 123.666 19.4968 122.657 8.54199C120.901 9.40692 119.252 10.4195 117.714 11.5527C118.911 22.1971 121.361 32.7721 125.082 43.094C128.807 53.416 133.669 63.105 139.529 72.0346C141.429 71.902 143.335 71.6097 145.231 71.1335C139.031 62.0924 133.86 52.114 129.96 41.3039Z" fill="white"/>
<path d="M146.829 27.4199C143.541 19.5933 139.58 12.1675 135.007 5.20288C133.108 5.33548 131.202 5.62781 129.306 6.10398C134.129 13.1319 138.323 20.7264 141.784 28.8333C143.457 28.324 145.148 27.8659 146.829 27.4199Z" fill="white"/>
<path d="M149.464 34.1435C149.24 33.5256 149.019 32.9109 148.786 32.2991C147.11 32.73 145.27 33.2604 143.774 33.7004C144.043 34.4448 144.323 35.1862 144.592 35.9336C146.068 40.0232 147.325 44.1369 148.373 48.2687C149.992 47.5725 151.596 46.8583 153.173 46.1018" fill="white"/>
<path d="M149.574 53.425C150.652 58.5091 151.42 63.6053 151.889 68.6924C153.645 67.8274 155.291 66.8148 156.829 65.6847C156.286 60.8568 155.482 56.0469 154.425 51.2642C152.827 52.0146 151.208 52.7379 149.574 53.425Z" fill="white"/>
<path d="M132.699 48.4133C124.332 50.9418 115.886 52.5752 107.466 53.3648C108.323 55.1369 109.327 56.8005 110.45 58.3525C118.652 57.4122 126.815 55.7065 134.849 53.2292C134.102 51.641 133.386 50.0347 132.699 48.4133Z" fill="white"/>
<path d="M139.933 45.9963C139.177 46.2735 138.418 46.5418 137.66 46.804H137.663C138.356 48.4193 139.075 50.0166 139.825 51.5897C140.452 51.3697 141.08 51.1437 141.707 50.9146C151.937 47.1566 161.539 42.2503 170.389 36.3374C170.258 34.4207 169.968 32.4979 169.496 30.5842C160.536 36.8437 150.646 42.0634 139.933 45.9963Z" fill="white"/>
<path d="M164.096 18.8879C153.547 20.0964 143.066 22.5677 132.836 26.3227C132.209 26.5518 131.581 26.7748 130.96 27.0159C131.387 28.7066 131.913 30.563 132.349 32.0729C133.102 31.7956 133.851 31.5093 134.61 31.229C145.324 27.2931 156.226 24.8852 167.08 23.8666C166.22 22.0975 165.216 20.443 164.096 18.8879Z" fill="white"/>
<path d="M126.175 28.9749C118.419 32.2929 111.056 36.2891 104.153 40.9031C104.285 42.8198 104.575 44.7425 105.047 46.6562C112.015 41.7891 119.542 37.5549 127.582 34.062C127.074 32.3773 126.617 30.6716 126.175 28.9749Z" fill="white"/>
<path d="M7.80231 112.585C7.36231 112.585 7.07631 112.453 6.94431 112.189C6.81231 111.903 6.83431 111.562 7.01031 111.166L16.2833 89.848C16.5473 89.232 16.9543 88.924 17.5043 88.924C18.0543 88.924 18.4613 89.232 18.7253 89.848L27.9983 111.166C28.1963 111.562 28.2293 111.903 28.0973 112.189C27.9873 112.453 27.7233 112.585 27.3053 112.585C26.9973 112.585 26.7443 112.508 26.5463 112.354C26.3703 112.178 26.2163 111.947 26.0843 111.661L23.7413 106.183H11.2673L8.92431 111.661C8.66031 112.277 8.28631 112.585 7.80231 112.585ZM17.4713 91.63L12.0263 104.434H22.9823L17.5373 91.63H17.4713ZM39.0097 118.591C37.8217 118.591 36.6667 118.437 35.5447 118.129C34.4447 117.843 33.4437 117.37 32.5417 116.71C32.2337 116.512 32.1017 116.259 32.1457 115.951C32.1897 115.643 32.3327 115.39 32.5747 115.192C32.8167 115.016 33.0807 115.016 33.3667 115.192C34.3567 115.852 35.2807 116.303 36.1387 116.545C37.0187 116.787 37.9537 116.908 38.9437 116.908C40.5497 116.908 41.7707 116.468 42.6067 115.588C43.4427 114.708 43.8607 113.432 43.8607 111.76V108.658C43.3987 109.714 42.6617 110.539 41.6497 111.133C40.6597 111.727 39.5267 112.024 38.2507 112.024C36.7547 112.024 35.4677 111.694 34.3897 111.034C33.3337 110.352 32.5087 109.417 31.9147 108.229C31.3427 107.019 31.0567 105.622 31.0567 104.038C31.0567 102.454 31.3427 101.068 31.9147 99.88C32.5087 98.692 33.3337 97.768 34.3897 97.108C35.4677 96.426 36.7547 96.085 38.2507 96.085C39.5267 96.085 40.6487 96.382 41.6167 96.976C42.6067 97.548 43.3437 98.351 43.8277 99.385V97.207C43.8277 96.503 44.1577 96.151 44.8177 96.151C45.4777 96.151 45.8077 96.503 45.8077 97.207V111.463C45.8077 116.215 43.5417 118.591 39.0097 118.591ZM38.4817 110.308C40.1317 110.308 41.4407 109.747 42.4087 108.625C43.3767 107.481 43.8607 105.952 43.8607 104.038C43.8607 102.124 43.3767 100.606 42.4087 99.484C41.4407 98.362 40.1317 97.801 38.4817 97.801C36.8097 97.801 35.4897 98.362 34.5217 99.484C33.5757 100.606 33.1027 102.124 33.1027 104.038C33.1027 105.952 33.5757 107.481 34.5217 108.625C35.4897 109.747 36.8097 110.308 38.4817 110.308ZM57.4939 112.651C55.9979 112.651 54.6999 112.321 53.5999 111.661C52.4999 110.979 51.6419 110.022 51.0259 108.79C50.4319 107.536 50.1349 106.062 50.1349 104.368C50.1349 102.696 50.4319 101.244 51.0259 100.012C51.6419 98.758 52.4999 97.79 53.5999 97.108C54.6999 96.426 55.9979 96.085 57.4939 96.085C59.0119 96.085 60.3209 96.426 61.4209 97.108C62.5209 97.79 63.3679 98.758 63.9619 100.012C64.5779 101.244 64.8859 102.696 64.8859 104.368C64.8859 106.062 64.5779 107.536 63.9619 108.79C63.3679 110.022 62.5209 110.979 61.4209 111.661C60.3209 112.321 59.0119 112.651 57.4939 112.651ZM57.4939 110.968C59.1219 110.968 60.4199 110.396 61.3879 109.252C62.3559 108.086 62.8399 106.458 62.8399 104.368C62.8399 102.278 62.3559 100.661 61.3879 99.517C60.4199 98.373 59.1219 97.801 57.4939 97.801C55.8659 97.801 54.5679 98.373 53.5999 99.517C52.6539 100.661 52.1809 102.278 52.1809 104.368C52.1809 106.458 52.6539 108.086 53.5999 109.252C54.5679 110.396 55.8659 110.968 57.4939 110.968ZM70.1947 112.585C69.5127 112.585 69.1717 112.244 69.1717 111.562V97.207C69.1717 96.503 69.5127 96.151 70.1947 96.151C70.8327 96.151 71.1517 96.503 71.1517 97.207V99.286C71.6357 98.252 72.3507 97.46 73.2967 96.91C74.2647 96.36 75.3757 96.074 76.6297 96.052C76.8937 96.03 77.1137 96.085 77.2897 96.217C77.4657 96.349 77.5537 96.558 77.5537 96.844C77.5757 97.46 77.2567 97.801 76.5967 97.867L76.1347 97.9C74.5727 98.032 73.3627 98.549 72.5047 99.451C71.6467 100.331 71.2177 101.519 71.2177 103.015V111.562C71.2177 112.244 70.8767 112.585 70.1947 112.585ZM85.2399 112.651C84.1619 112.651 83.1939 112.442 82.3359 112.024C81.4999 111.606 80.8289 111.034 80.3229 110.308C79.8389 109.582 79.5969 108.768 79.5969 107.866C79.5969 106.678 79.8939 105.754 80.4879 105.094C81.0819 104.412 82.0829 103.928 83.4909 103.642C84.8989 103.356 86.8349 103.213 89.2989 103.213H90.3219V102.025C90.3219 100.551 90.0249 99.484 89.4309 98.824C88.8369 98.142 87.8909 97.801 86.5929 97.801C85.7569 97.801 84.9429 97.911 84.1509 98.131C83.3589 98.351 82.5339 98.703 81.6759 99.187C81.2799 99.407 80.9609 99.418 80.7189 99.22C80.4989 99 80.3889 98.725 80.3889 98.395C80.4109 98.043 80.5979 97.779 80.9499 97.603C81.8519 97.097 82.7869 96.723 83.7549 96.481C84.7229 96.217 85.6579 96.085 86.5599 96.085C88.4959 96.085 89.9259 96.58 90.8499 97.57C91.7959 98.56 92.2689 100.078 92.2689 102.124V111.562C92.2689 112.244 91.9609 112.585 91.3449 112.585C90.6849 112.585 90.3549 112.244 90.3549 111.562V109.516C89.9149 110.506 89.2439 111.276 88.3419 111.826C87.4619 112.376 86.4279 112.651 85.2399 112.651ZM85.5039 111.034C86.4499 111.034 87.2749 110.814 87.9789 110.374C88.7049 109.912 89.2769 109.285 89.6949 108.493C90.1129 107.701 90.3219 106.799 90.3219 105.787V104.698H89.3319C87.3519 104.698 85.8009 104.786 84.6789 104.962C83.5789 105.138 82.8089 105.446 82.3689 105.886C81.9289 106.326 81.7089 106.931 81.7089 107.701C81.7089 108.691 82.0499 109.494 82.7319 110.11C83.4139 110.726 84.3379 111.034 85.5039 111.034ZM112.38 112.651C110.818 112.651 109.476 112.31 108.354 111.628C107.232 110.924 106.363 109.945 105.747 108.691C105.153 107.415 104.856 105.941 104.856 104.269C104.856 101.739 105.516 99.748 106.836 98.296C108.178 96.822 110.026 96.085 112.38 96.085C113.194 96.085 114.03 96.228 114.888 96.514C115.768 96.8 116.549 97.251 117.231 97.867C117.517 98.087 117.627 98.351 117.561 98.659C117.495 98.967 117.319 99.198 117.033 99.352C116.769 99.484 116.472 99.418 116.142 99.154C115.526 98.648 114.899 98.307 114.261 98.131C113.623 97.933 113.018 97.834 112.446 97.834C110.664 97.834 109.289 98.395 108.321 99.517C107.375 100.639 106.902 102.234 106.902 104.302C106.902 106.37 107.375 107.998 108.321 109.186C109.289 110.352 110.664 110.935 112.446 110.935C113.018 110.935 113.623 110.847 114.261 110.671C114.899 110.473 115.526 110.121 116.142 109.615C116.494 109.351 116.791 109.296 117.033 109.45C117.297 109.582 117.451 109.802 117.495 110.11C117.561 110.418 117.462 110.682 117.198 110.902C116.516 111.518 115.746 111.969 114.888 112.255C114.03 112.519 113.194 112.651 112.38 112.651ZM127.039 112.651C125.543 112.651 124.245 112.321 123.145 111.661C122.045 110.979 121.187 110.022 120.571 108.79C119.977 107.536 119.68 106.062 119.68 104.368C119.68 102.696 119.977 101.244 120.571 100.012C121.187 98.758 122.045 97.79 123.145 97.108C124.245 96.426 125.543 96.085 127.039 96.085C128.557 96.085 129.866 96.426 130.966 97.108C132.066 97.79 132.913 98.758 133.507 100.012C134.123 101.244 134.431 102.696 134.431 104.368C134.431 106.062 134.123 107.536 133.507 108.79C132.913 110.022 132.066 110.979 130.966 111.661C129.866 112.321 128.557 112.651 127.039 112.651ZM127.039 110.968C128.667 110.968 129.965 110.396 130.933 109.252C131.901 108.086 132.385 106.458 132.385 104.368C132.385 102.278 131.901 100.661 130.933 99.517C129.965 98.373 128.667 97.801 127.039 97.801C125.411 97.801 124.113 98.373 123.145 99.517C122.199 100.661 121.726 102.278 121.726 104.368C121.726 106.458 122.199 108.086 123.145 109.252C124.113 110.396 125.411 110.968 127.039 110.968ZM139.806 112.585C139.124 112.585 138.783 112.244 138.783 111.562V97.207C138.783 96.503 139.124 96.151 139.806 96.151C140.444 96.151 140.763 96.503 140.763 97.207V99.187C141.753 97.119 143.436 96.085 145.812 96.085C148.364 96.085 149.981 97.196 150.663 99.418C151.125 98.384 151.829 97.57 152.775 96.976C153.721 96.382 154.821 96.085 156.075 96.085C159.617 96.085 161.388 98.153 161.388 102.289V111.562C161.388 112.244 161.047 112.585 160.365 112.585C159.705 112.585 159.375 112.244 159.375 111.562V102.454C159.375 100.87 159.089 99.704 158.517 98.956C157.967 98.208 157.032 97.834 155.712 97.834C154.304 97.834 153.182 98.329 152.346 99.319C151.51 100.287 151.092 101.607 151.092 103.279V111.562C151.092 112.244 150.762 112.585 150.102 112.585C149.42 112.585 149.079 112.244 149.079 111.562V102.454C149.079 100.87 148.793 99.704 148.221 98.956C147.671 98.208 146.747 97.834 145.449 97.834C144.019 97.834 142.886 98.329 142.05 99.319C141.214 100.287 140.796 101.607 140.796 103.279V111.562C140.796 112.244 140.466 112.585 139.806 112.585ZM181.011 112.651C179.229 112.651 177.887 112.167 176.985 111.199C176.105 110.231 175.665 108.845 175.665 107.041V97.999H173.223C172.585 97.999 172.266 97.724 172.266 97.174C172.266 96.646 172.585 96.382 173.223 96.382H175.665V92.257C175.665 91.575 176.006 91.234 176.688 91.234C177.348 91.234 177.678 91.575 177.678 92.257V96.382H182.133C182.749 96.382 183.057 96.646 183.057 97.174C183.057 97.724 182.749 97.999 182.133 97.999H177.678V106.777C177.678 108.119 177.953 109.142 178.503 109.846C179.053 110.55 179.966 110.902 181.242 110.902C181.682 110.902 182.045 110.858 182.331 110.77C182.617 110.66 182.87 110.605 183.09 110.605C183.486 110.605 183.684 110.88 183.684 111.43C183.684 111.606 183.64 111.782 183.552 111.958C183.486 112.112 183.354 112.222 183.156 112.288C182.914 112.376 182.584 112.453 182.166 112.519C181.748 112.607 181.363 112.651 181.011 112.651ZM192.827 112.651C190.363 112.651 188.416 111.925 186.986 110.473C185.578 108.999 184.874 106.986 184.874 104.434C184.874 102.784 185.193 101.332 185.831 100.078C186.469 98.824 187.349 97.845 188.471 97.141C189.615 96.437 190.924 96.085 192.398 96.085C194.532 96.085 196.193 96.778 197.381 98.164C198.569 99.55 199.163 101.453 199.163 103.873C199.163 104.489 198.855 104.797 198.239 104.797H186.854C186.92 106.777 187.459 108.306 188.471 109.384C189.505 110.44 190.935 110.968 192.761 110.968C193.575 110.968 194.356 110.869 195.104 110.671C195.874 110.451 196.622 110.066 197.348 109.516C197.744 109.252 198.085 109.197 198.371 109.351C198.657 109.483 198.811 109.714 198.833 110.044C198.877 110.352 198.712 110.638 198.338 110.902C197.634 111.474 196.776 111.914 195.764 112.222C194.774 112.508 193.795 112.651 192.827 112.651ZM192.431 97.702C190.759 97.702 189.45 98.23 188.504 99.286C187.58 100.32 187.041 101.662 186.887 103.312H197.348C197.304 101.552 196.864 100.177 196.028 99.187C195.192 98.197 193.993 97.702 192.431 97.702ZM209.8 112.651C208.238 112.651 206.896 112.31 205.774 111.628C204.652 110.924 203.783 109.945 203.167 108.691C202.573 107.415 202.276 105.941 202.276 104.269C202.276 101.739 202.936 99.748 204.256 98.296C205.598 96.822 207.446 96.085 209.8 96.085C210.614 96.085 211.45 96.228 212.308 96.514C213.188 96.8 213.969 97.251 214.651 97.867C214.937 98.087 215.047 98.351 214.981 98.659C214.915 98.967 214.739 99.198 214.453 99.352C214.189 99.484 213.892 99.418 213.562 99.154C212.946 98.648 212.319 98.307 211.681 98.131C211.043 97.933 210.438 97.834 209.866 97.834C208.084 97.834 206.709 98.395 205.741 99.517C204.795 100.639 204.322 102.234 204.322 104.302C204.322 106.37 204.795 107.998 205.741 109.186C206.709 110.352 208.084 110.935 209.866 110.935C210.438 110.935 211.043 110.847 211.681 110.671C212.319 110.473 212.946 110.121 213.562 109.615C213.914 109.351 214.211 109.296 214.453 109.45C214.717 109.582 214.871 109.802 214.915 110.11C214.981 110.418 214.882 110.682 214.618 110.902C213.936 111.518 213.166 111.969 212.308 112.255C211.45 112.519 210.614 112.651 209.8 112.651ZM219.436 112.585C218.754 112.585 218.413 112.244 218.413 111.562V97.207C218.413 96.503 218.754 96.151 219.436 96.151C220.074 96.151 220.393 96.503 220.393 97.207V99.253C220.921 98.197 221.68 97.405 222.67 96.877C223.66 96.349 224.76 96.085 225.97 96.085C229.776 96.085 231.679 98.153 231.679 102.289V111.562C231.679 112.244 231.349 112.585 230.689 112.585C230.007 112.585 229.666 112.244 229.666 111.562V102.454C229.666 100.87 229.347 99.704 228.709 98.956C228.071 98.208 227.059 97.834 225.673 97.834C224.089 97.834 222.813 98.329 221.845 99.319C220.899 100.287 220.426 101.596 220.426 103.246V111.562C220.426 112.244 220.096 112.585 219.436 112.585ZM243.248 112.651C241.752 112.651 240.454 112.321 239.354 111.661C238.254 110.979 237.396 110.022 236.78 108.79C236.186 107.536 235.889 106.062 235.889 104.368C235.889 102.696 236.186 101.244 236.78 100.012C237.396 98.758 238.254 97.79 239.354 97.108C240.454 96.426 241.752 96.085 243.248 96.085C244.766 96.085 246.075 96.426 247.175 97.108C248.275 97.79 249.122 98.758 249.716 100.012C250.332 101.244 250.64 102.696 250.64 104.368C250.64 106.062 250.332 107.536 249.716 108.79C249.122 110.022 248.275 110.979 247.175 111.661C246.075 112.321 244.766 112.651 243.248 112.651ZM243.248 110.968C244.876 110.968 246.174 110.396 247.142 109.252C248.11 108.086 248.594 106.458 248.594 104.368C248.594 102.278 248.11 100.661 247.142 99.517C246.174 98.373 244.876 97.801 243.248 97.801C241.62 97.801 240.322 98.373 239.354 99.517C238.408 100.661 237.935 102.278 237.935 104.368C237.935 106.458 238.408 108.086 239.354 109.252C240.322 110.396 241.62 110.968 243.248 110.968ZM259.546 112.651C258.072 112.651 256.928 112.2 256.114 111.298C255.322 110.374 254.926 109.054 254.926 107.338V89.947C254.926 89.265 255.267 88.924 255.949 88.924C256.609 88.924 256.939 89.265 256.939 89.947V107.107C256.939 109.637 257.929 110.902 259.909 110.902C260.107 110.902 260.283 110.891 260.437 110.869C260.613 110.847 260.778 110.836 260.932 110.836C261.13 110.814 261.273 110.858 261.361 110.968C261.471 111.056 261.526 111.254 261.526 111.562C261.526 112.134 261.196 112.475 260.536 112.585C260.382 112.629 260.217 112.651 260.041 112.651C259.865 112.651 259.7 112.651 259.546 112.651ZM270.544 112.651C269.048 112.651 267.75 112.321 266.65 111.661C265.55 110.979 264.692 110.022 264.076 108.79C263.482 107.536 263.185 106.062 263.185 104.368C263.185 102.696 263.482 101.244 264.076 100.012C264.692 98.758 265.55 97.79 266.65 97.108C267.75 96.426 269.048 96.085 270.544 96.085C272.062 96.085 273.371 96.426 274.471 97.108C275.571 97.79 276.418 98.758 277.012 100.012C277.628 101.244 277.936 102.696 277.936 104.368C277.936 106.062 277.628 107.536 277.012 108.79C276.418 110.022 275.571 110.979 274.471 111.661C273.371 112.321 272.062 112.651 270.544 112.651ZM270.544 110.968C272.172 110.968 273.47 110.396 274.438 109.252C275.406 108.086 275.89 106.458 275.89 104.368C275.89 102.278 275.406 100.661 274.438 99.517C273.47 98.373 272.172 97.801 270.544 97.801C268.916 97.801 267.618 98.373 266.65 99.517C265.704 100.661 265.231 102.278 265.231 104.368C265.231 106.458 265.704 108.086 266.65 109.252C267.618 110.396 268.916 110.968 270.544 110.968ZM289.185 118.591C287.997 118.591 286.842 118.437 285.72 118.129C284.62 117.843 283.619 117.37 282.717 116.71C282.409 116.512 282.277 116.259 282.321 115.951C282.365 115.643 282.508 115.39 282.75 115.192C282.992 115.016 283.256 115.016 283.542 115.192C284.532 115.852 285.456 116.303 286.314 116.545C287.194 116.787 288.129 116.908 289.119 116.908C290.725 116.908 291.946 116.468 292.782 115.588C293.618 114.708 294.036 113.432 294.036 111.76V108.658C293.574 109.714 292.837 110.539 291.825 111.133C290.835 111.727 289.702 112.024 288.426 112.024C286.93 112.024 285.643 111.694 284.565 111.034C283.509 110.352 282.684 109.417 282.09 108.229C281.518 107.019 281.232 105.622 281.232 104.038C281.232 102.454 281.518 101.068 282.09 99.88C282.684 98.692 283.509 97.768 284.565 97.108C285.643 96.426 286.93 96.085 288.426 96.085C289.702 96.085 290.824 96.382 291.792 96.976C292.782 97.548 293.519 98.351 294.003 99.385V97.207C294.003 96.503 294.333 96.151 294.993 96.151C295.653 96.151 295.983 96.503 295.983 97.207V111.463C295.983 116.215 293.717 118.591 289.185 118.591ZM288.657 110.308C290.307 110.308 291.616 109.747 292.584 108.625C293.552 107.481 294.036 105.952 294.036 104.038C294.036 102.124 293.552 100.606 292.584 99.484C291.616 98.362 290.307 97.801 288.657 97.801C286.985 97.801 285.665 98.362 284.697 99.484C283.751 100.606 283.278 102.124 283.278 104.038C283.278 105.952 283.751 107.481 284.697 108.625C285.665 109.747 286.985 110.308 288.657 110.308ZM302.323 92.257C301.355 92.257 300.871 91.795 300.871 90.871C300.871 89.969 301.355 89.518 302.323 89.518C303.291 89.518 303.775 89.969 303.775 90.871C303.775 91.795 303.291 92.257 302.323 92.257ZM302.323 112.519C301.641 112.519 301.3 112.156 301.3 111.43V97.306C301.3 96.602 301.641 96.25 302.323 96.25C302.983 96.25 303.313 96.602 303.313 97.306V111.43C303.313 112.156 302.983 112.519 302.323 112.519ZM313.565 112.651C312.487 112.651 311.519 112.442 310.661 112.024C309.825 111.606 309.154 111.034 308.648 110.308C308.164 109.582 307.922 108.768 307.922 107.866C307.922 106.678 308.219 105.754 308.813 105.094C309.407 104.412 310.408 103.928 311.816 103.642C313.224 103.356 315.16 103.213 317.624 103.213H318.647V102.025C318.647 100.551 318.35 99.484 317.756 98.824C317.162 98.142 316.216 97.801 314.918 97.801C314.082 97.801 313.268 97.911 312.476 98.131C311.684 98.351 310.859 98.703 310.001 99.187C309.605 99.407 309.286 99.418 309.044 99.22C308.824 99 308.714 98.725 308.714 98.395C308.736 98.043 308.923 97.779 309.275 97.603C310.177 97.097 311.112 96.723 312.08 96.481C313.048 96.217 313.983 96.085 314.885 96.085C316.821 96.085 318.251 96.58 319.175 97.57C320.121 98.56 320.594 100.078 320.594 102.124V111.562C320.594 112.244 320.286 112.585 319.67 112.585C319.01 112.585 318.68 112.244 318.68 111.562V109.516C318.24 110.506 317.569 111.276 316.667 111.826C315.787 112.376 314.753 112.651 313.565 112.651ZM313.829 111.034C314.775 111.034 315.6 110.814 316.304 110.374C317.03 109.912 317.602 109.285 318.02 108.493C318.438 107.701 318.647 106.799 318.647 105.787V104.698H317.657C315.677 104.698 314.126 104.786 313.004 104.962C311.904 105.138 311.134 105.446 310.694 105.886C310.254 106.326 310.034 106.931 310.034 107.701C310.034 108.691 310.375 109.494 311.057 110.11C311.739 110.726 312.663 111.034 313.829 111.034ZM339.814 112.651C336.008 112.651 334.105 110.583 334.105 106.447V97.207C334.105 96.503 334.446 96.151 335.128 96.151C335.788 96.151 336.118 96.503 336.118 97.207V106.348C336.118 107.91 336.437 109.065 337.075 109.813C337.713 110.561 338.714 110.935 340.078 110.935C341.552 110.935 342.751 110.44 343.675 109.45C344.621 108.46 345.094 107.14 345.094 105.49V97.207C345.094 96.503 345.435 96.151 346.117 96.151C346.777 96.151 347.107 96.503 347.107 97.207V111.562C347.107 112.244 346.788 112.585 346.15 112.585C345.49 112.585 345.16 112.244 345.16 111.562V109.549C344.632 110.561 343.895 111.331 342.949 111.859C342.025 112.387 340.98 112.651 339.814 112.651ZM341.53 94.072C341.376 94.314 341.167 94.435 340.903 94.435C340.661 94.413 340.463 94.303 340.309 94.105C340.177 93.907 340.177 93.665 340.309 93.379L343.213 87.802C343.367 87.494 343.576 87.307 343.84 87.241C344.104 87.175 344.346 87.208 344.566 87.34C344.808 87.472 344.973 87.659 345.061 87.901C345.149 88.143 345.105 88.396 344.929 88.66L341.53 94.072ZM353.434 112.585C352.752 112.585 352.411 112.244 352.411 111.562V97.207C352.411 96.503 352.752 96.151 353.434 96.151C354.072 96.151 354.391 96.503 354.391 97.207V99.253C354.919 98.197 355.678 97.405 356.668 96.877C357.658 96.349 358.758 96.085 359.968 96.085C363.774 96.085 365.677 98.153 365.677 102.289V111.562C365.677 112.244 365.347 112.585 364.687 112.585C364.005 112.585 363.664 112.244 363.664 111.562V102.454C363.664 100.87 363.345 99.704 362.707 98.956C362.069 98.208 361.057 97.834 359.671 97.834C358.087 97.834 356.811 98.329 355.843 99.319C354.897 100.287 354.424 101.596 354.424 103.246V111.562C354.424 112.244 354.094 112.585 353.434 112.585ZM371.9 92.257C370.932 92.257 370.448 91.795 370.448 90.871C370.448 89.969 370.932 89.518 371.9 89.518C372.868 89.518 373.352 89.969 373.352 90.871C373.352 91.795 372.868 92.257 371.9 92.257ZM371.9 112.519C371.218 112.519 370.877 112.156 370.877 111.43V97.306C370.877 96.602 371.218 96.25 371.9 96.25C372.56 96.25 372.89 96.602 372.89 97.306V111.43C372.89 112.156 372.56 112.519 371.9 112.519ZM384.726 112.651C383.164 112.651 381.822 112.31 380.7 111.628C379.578 110.924 378.709 109.945 378.093 108.691C377.499 107.415 377.202 105.941 377.202 104.269C377.202 101.739 377.862 99.748 379.182 98.296C380.524 96.822 382.372 96.085 384.726 96.085C385.54 96.085 386.376 96.228 387.234 96.514C388.114 96.8 388.895 97.251 389.577 97.867C389.863 98.087 389.973 98.351 389.907 98.659C389.841 98.967 389.665 99.198 389.379 99.352C389.115 99.484 388.818 99.418 388.488 99.154C387.872 98.648 387.245 98.307 386.607 98.131C385.969 97.933 385.364 97.834 384.792 97.834C383.01 97.834 381.635 98.395 380.667 99.517C379.721 100.639 379.248 102.234 379.248 104.302C379.248 106.37 379.721 107.998 380.667 109.186C381.635 110.352 383.01 110.935 384.792 110.935C385.364 110.935 385.969 110.847 386.607 110.671C387.245 110.473 387.872 110.121 388.488 109.615C388.84 109.351 389.137 109.296 389.379 109.45C389.643 109.582 389.797 109.802 389.841 110.11C389.907 110.418 389.808 110.682 389.544 110.902C388.862 111.518 388.092 111.969 387.234 112.255C386.376 112.519 385.54 112.651 384.726 112.651ZM398.128 112.651C397.05 112.651 396.082 112.442 395.224 112.024C394.388 111.606 393.717 111.034 393.211 110.308C392.727 109.582 392.485 108.768 392.485 107.866C392.485 106.678 392.782 105.754 393.376 105.094C393.97 104.412 394.971 103.928 396.379 103.642C397.787 103.356 399.723 103.213 402.187 103.213H403.21V102.025C403.21 100.551 402.913 99.484 402.319 98.824C401.725 98.142 400.779 97.801 399.481 97.801C398.645 97.801 397.831 97.911 397.039 98.131C396.247 98.351 395.422 98.703 394.564 99.187C394.168 99.407 393.849 99.418 393.607 99.22C393.387 99 393.277 98.725 393.277 98.395C393.299 98.043 393.486 97.779 393.838 97.603C394.74 97.097 395.675 96.723 396.643 96.481C397.611 96.217 398.546 96.085 399.448 96.085C401.384 96.085 402.814 96.58 403.738 97.57C404.684 98.56 405.157 100.078 405.157 102.124V111.562C405.157 112.244 404.849 112.585 404.233 112.585C403.573 112.585 403.243 112.244 403.243 111.562V109.516C402.803 110.506 402.132 111.276 401.23 111.826C400.35 112.376 399.316 112.651 398.128 112.651ZM398.392 111.034C399.338 111.034 400.163 110.814 400.867 110.374C401.593 109.912 402.165 109.285 402.583 108.493C403.001 107.701 403.21 106.799 403.21 105.787V104.698H402.22C400.24 104.698 398.689 104.786 397.567 104.962C396.467 105.138 395.697 105.446 395.257 105.886C394.817 106.326 394.597 106.931 394.597 107.701C394.597 108.691 394.938 109.494 395.62 110.11C396.302 110.726 397.226 111.034 398.392 111.034ZM38.4941 148.651C36.0301 148.651 34.0831 147.925 32.6531 146.473C31.2451 144.999 30.5411 142.986 30.5411 140.434C30.5411 138.784 30.8601 137.332 31.4981 136.078C32.1361 134.824 33.0161 133.845 34.1381 133.141C35.2821 132.437 36.5911 132.085 38.0651 132.085C40.1991 132.085 41.8601 132.778 43.0481 134.164C44.2361 135.55 44.8301 137.453 44.8301 139.873C44.8301 140.489 44.5221 140.797 43.9061 140.797H32.5211C32.5871 142.777 33.1261 144.306 34.1381 145.384C35.1721 146.44 36.6021 146.968 38.4281 146.968C39.2421 146.968 40.0231 146.869 40.7711 146.671C41.5411 146.451 42.2891 146.066 43.0151 145.516C43.4111 145.252 43.7521 145.197 44.0381 145.351C44.3241 145.483 44.4781 145.714 44.5001 146.044C44.5441 146.352 44.3791 146.638 44.0051 146.902C43.3011 147.474 42.4431 147.914 41.4311 148.222C40.4411 148.508 39.4621 148.651 38.4941 148.651ZM38.0981 133.702C36.4261 133.702 35.1171 134.23 34.1711 135.286C33.2471 136.32 32.7081 137.662 32.5541 139.312H43.0151C42.9711 137.552 42.5311 136.177 41.6951 135.187C40.8591 134.197 39.6601 133.702 38.0981 133.702ZM58.2709 148.585C57.5889 148.585 57.2479 148.244 57.2479 147.562V133.207C57.2479 132.503 57.5889 132.151 58.2709 132.151C58.9089 132.151 59.2279 132.503 59.2279 133.207V135.253C59.7559 134.197 60.5149 133.405 61.5049 132.877C62.4949 132.349 63.5949 132.085 64.8049 132.085C68.6109 132.085 70.5139 134.153 70.5139 138.289V147.562C70.5139 148.244 70.1839 148.585 69.5239 148.585C68.8419 148.585 68.5009 148.244 68.5009 147.562V138.454C68.5009 136.87 68.1819 135.704 67.5439 134.956C66.9059 134.208 65.8939 133.834 64.5079 133.834C62.9239 133.834 61.6479 134.329 60.6799 135.319C59.7339 136.287 59.2609 137.596 59.2609 139.246V147.562C59.2609 148.244 58.9309 148.585 58.2709 148.585ZM82.0827 148.651C80.5867 148.651 79.2887 148.321 78.1887 147.661C77.0887 146.979 76.2307 146.022 75.6147 144.79C75.0207 143.536 74.7237 142.062 74.7237 140.368C74.7237 138.696 75.0207 137.244 75.6147 136.012C76.2307 134.758 77.0887 133.79 78.1887 133.108C79.2887 132.426 80.5867 132.085 82.0827 132.085C83.6007 132.085 84.9097 132.426 86.0097 133.108C87.1097 133.79 87.9567 134.758 88.5507 136.012C89.1667 137.244 89.4747 138.696 89.4747 140.368C89.4747 142.062 89.1667 143.536 88.5507 144.79C87.9567 146.022 87.1097 146.979 86.0097 147.661C84.9097 148.321 83.6007 148.651 82.0827 148.651ZM82.0827 146.968C83.7107 146.968 85.0087 146.396 85.9767 145.252C86.9447 144.086 87.4287 142.458 87.4287 140.368C87.4287 138.278 86.9447 136.661 85.9767 135.517C85.0087 134.373 83.7107 133.801 82.0827 133.801C80.4547 133.801 79.1567 134.373 78.1887 135.517C77.2427 136.661 76.7697 138.278 76.7697 140.368C76.7697 142.458 77.2427 144.086 78.1887 145.252C79.1567 146.396 80.4547 146.968 82.0827 146.968ZM99.3422 148.585C98.7042 148.585 98.2312 148.233 97.9232 147.529L91.9832 133.669C91.8072 133.273 91.7962 132.921 91.9502 132.613C92.1042 132.305 92.4122 132.151 92.8742 132.151C93.3362 132.151 93.6772 132.426 93.8972 132.976L99.3422 146.176L104.853 132.976C104.963 132.69 105.095 132.481 105.249 132.349C105.403 132.217 105.623 132.151 105.909 132.151C106.327 132.151 106.591 132.305 106.701 132.613C106.833 132.921 106.822 133.262 106.668 133.636L100.728 147.529C100.442 148.233 99.9802 148.585 99.3422 148.585ZM114.985 148.651C113.907 148.651 112.939 148.442 112.081 148.024C111.245 147.606 110.574 147.034 110.068 146.308C109.584 145.582 109.342 144.768 109.342 143.866C109.342 142.678 109.639 141.754 110.233 141.094C110.827 140.412 111.828 139.928 113.236 139.642C114.644 139.356 116.58 139.213 119.044 139.213H120.067V138.025C120.067 136.551 119.77 135.484 119.176 134.824C118.582 134.142 117.636 133.801 116.338 133.801C115.502 133.801 114.688 133.911 113.896 134.131C113.104 134.351 112.279 134.703 111.421 135.187C111.025 135.407 110.706 135.418 110.464 135.22C110.244 135 110.134 134.725 110.134 134.395C110.156 134.043 110.343 133.779 110.695 133.603C111.597 133.097 112.532 132.723 113.5 132.481C114.468 132.217 115.403 132.085 116.305 132.085C118.241 132.085 119.671 132.58 120.595 133.57C121.541 134.56 122.014 136.078 122.014 138.124V147.562C122.014 148.244 121.706 148.585 121.09 148.585C120.43 148.585 120.1 148.244 120.1 147.562V145.516C119.66 146.506 118.989 147.276 118.087 147.826C117.207 148.376 116.173 148.651 114.985 148.651ZM115.249 147.034C116.195 147.034 117.02 146.814 117.724 146.374C118.45 145.912 119.022 145.285 119.44 144.493C119.858 143.701 120.067 142.799 120.067 141.787V140.698H119.077C117.097 140.698 115.546 140.786 114.424 140.962C113.324 141.138 112.554 141.446 112.114 141.886C111.674 142.326 111.454 142.931 111.454 143.701C111.454 144.691 111.795 145.494 112.477 146.11C113.159 146.726 114.083 147.034 115.249 147.034ZM132.49 148.651C131.5 148.651 130.51 148.519 129.52 148.255C128.552 147.991 127.628 147.54 126.748 146.902C126.462 146.726 126.33 146.484 126.352 146.176C126.374 145.846 126.495 145.593 126.715 145.417C126.957 145.241 127.254 145.263 127.606 145.483C128.464 146.055 129.3 146.451 130.114 146.671C130.928 146.891 131.742 147.001 132.556 147.001C133.92 147.001 134.943 146.759 135.625 146.275C136.329 145.769 136.681 145.076 136.681 144.196C136.681 143.514 136.45 142.975 135.988 142.579C135.526 142.183 134.8 141.864 133.81 141.622L130.939 140.962C128.233 140.346 126.88 138.949 126.88 136.771C126.88 135.363 127.43 134.23 128.53 133.372C129.63 132.514 131.082 132.085 132.886 132.085C133.832 132.085 134.745 132.228 135.625 132.514C136.527 132.8 137.308 133.24 137.968 133.834C138.254 134.054 138.375 134.318 138.331 134.626C138.287 134.934 138.133 135.165 137.869 135.319C137.627 135.473 137.341 135.429 137.011 135.187C136.373 134.703 135.702 134.351 134.998 134.131C134.294 133.889 133.579 133.768 132.853 133.768C131.577 133.768 130.587 134.032 129.883 134.56C129.201 135.088 128.86 135.803 128.86 136.705C128.86 137.387 129.069 137.937 129.487 138.355C129.905 138.773 130.587 139.092 131.533 139.312L134.404 139.972C135.834 140.302 136.901 140.797 137.605 141.457C138.309 142.095 138.661 142.964 138.661 144.064C138.661 145.494 138.1 146.616 136.978 147.43C135.856 148.244 134.36 148.651 132.49 148.651ZM153.131 148.585C152.449 148.585 152.108 148.244 152.108 147.562V133.999H149.765C149.149 133.999 148.841 133.724 148.841 133.174C148.841 132.646 149.149 132.382 149.765 132.382H152.108V131.59C152.108 127.564 154.033 125.386 157.883 125.056L158.774 124.99C159.192 124.968 159.456 125.089 159.566 125.353C159.698 125.595 159.709 125.859 159.599 126.145C159.489 126.431 159.28 126.585 158.972 126.607L158.048 126.706C156.684 126.816 155.683 127.267 155.045 128.059C154.429 128.829 154.121 129.951 154.121 131.425V132.382H158.048C158.664 132.382 158.972 132.646 158.972 133.174C158.972 133.724 158.664 133.999 158.048 133.999H154.121V147.562C154.121 148.244 153.791 148.585 153.131 148.585ZM167.531 148.651C163.725 148.651 161.822 146.583 161.822 142.447V133.207C161.822 132.503 162.163 132.151 162.845 132.151C163.505 132.151 163.835 132.503 163.835 133.207V142.348C163.835 143.91 164.154 145.065 164.792 145.813C165.43 146.561 166.431 146.935 167.795 146.935C169.269 146.935 170.468 146.44 171.392 145.45C172.338 144.46 172.811 143.14 172.811 141.49V133.207C172.811 132.503 173.152 132.151 173.834 132.151C174.494 132.151 174.824 132.503 174.824 133.207V147.562C174.824 148.244 174.505 148.585 173.867 148.585C173.207 148.585 172.877 148.244 172.877 147.562V145.549C172.349 146.561 171.612 147.331 170.666 147.859C169.742 148.387 168.697 148.651 167.531 148.651ZM181.151 148.585C180.469 148.585 180.128 148.244 180.128 147.562V133.207C180.128 132.503 180.469 132.151 181.151 132.151C181.789 132.151 182.108 132.503 182.108 133.207V135.253C182.636 134.197 183.395 133.405 184.385 132.877C185.375 132.349 186.475 132.085 187.685 132.085C191.491 132.085 193.394 134.153 193.394 138.289V147.562C193.394 148.244 193.064 148.585 192.404 148.585C191.722 148.585 191.381 148.244 191.381 147.562V138.454C191.381 136.87 191.062 135.704 190.424 134.956C189.786 134.208 188.774 133.834 187.388 133.834C185.804 133.834 184.528 134.329 183.56 135.319C182.614 136.287 182.141 137.596 182.141 139.246V147.562C182.141 148.244 181.811 148.585 181.151 148.585ZM205.128 148.651C203.566 148.651 202.224 148.31 201.102 147.628C199.98 146.924 199.111 145.945 198.495 144.691C197.901 143.415 197.604 141.941 197.604 140.269C197.604 137.739 198.264 135.748 199.584 134.296C200.926 132.822 202.774 132.085 205.128 132.085C205.942 132.085 206.778 132.228 207.636 132.514C208.516 132.8 209.297 133.251 209.979 133.867C210.265 134.087 210.375 134.351 210.309 134.659C210.243 134.967 210.067 135.198 209.781 135.352C209.517 135.484 209.22 135.418 208.89 135.154C208.274 134.648 207.647 134.307 207.009 134.131C206.371 133.933 205.766 133.834 205.194 133.834C203.412 133.834 202.037 134.395 201.069 135.517C200.123 136.639 199.65 138.234 199.65 140.302C199.65 142.37 200.123 143.998 201.069 145.186C202.037 146.352 203.412 146.935 205.194 146.935C205.766 146.935 206.371 146.847 207.009 146.671C207.647 146.473 208.274 146.121 208.89 145.615C209.242 145.351 209.539 145.296 209.781 145.45C210.045 145.582 210.199 145.802 210.243 146.11C210.309 146.418 210.21 146.682 209.946 146.902C209.264 147.518 208.494 147.969 207.636 148.255C206.778 148.519 205.942 148.651 205.128 148.651ZM214.763 128.257C213.795 128.257 213.311 127.795 213.311 126.871C213.311 125.969 213.795 125.518 214.763 125.518C215.731 125.518 216.215 125.969 216.215 126.871C216.215 127.795 215.731 128.257 214.763 128.257ZM214.763 148.519C214.081 148.519 213.74 148.156 213.74 147.43V133.306C213.74 132.602 214.081 132.25 214.763 132.25C215.423 132.25 215.753 132.602 215.753 133.306V147.43C215.753 148.156 215.423 148.519 214.763 148.519ZM227.425 148.651C225.929 148.651 224.631 148.321 223.531 147.661C222.431 146.979 221.573 146.022 220.957 144.79C220.363 143.536 220.066 142.062 220.066 140.368C220.066 138.696 220.363 137.244 220.957 136.012C221.573 134.758 222.431 133.79 223.531 133.108C224.631 132.426 225.929 132.085 227.425 132.085C228.943 132.085 230.252 132.426 231.352 133.108C232.452 133.79 233.299 134.758 233.893 136.012C234.509 137.244 234.817 138.696 234.817 140.368C234.817 142.062 234.509 143.536 233.893 144.79C233.299 146.022 232.452 146.979 231.352 147.661C230.252 148.321 228.943 148.651 227.425 148.651ZM227.425 146.968C229.053 146.968 230.351 146.396 231.319 145.252C232.287 144.086 232.771 142.458 232.771 140.368C232.771 138.278 232.287 136.661 231.319 135.517C230.351 134.373 229.053 133.801 227.425 133.801C225.797 133.801 224.499 134.373 223.531 135.517C222.585 136.661 222.112 138.278 222.112 140.368C222.112 142.458 222.585 144.086 223.531 145.252C224.499 146.396 225.797 146.968 227.425 146.968ZM240.125 148.585C239.443 148.585 239.102 148.244 239.102 147.562V133.207C239.102 132.503 239.443 132.151 240.125 132.151C240.763 132.151 241.082 132.503 241.082 133.207V135.253C241.61 134.197 242.369 133.405 243.359 132.877C244.349 132.349 245.449 132.085 246.659 132.085C250.465 132.085 252.368 134.153 252.368 138.289V147.562C252.368 148.244 252.038 148.585 251.378 148.585C250.696 148.585 250.355 148.244 250.355 147.562V138.454C250.355 136.87 250.036 135.704 249.398 134.956C248.76 134.208 247.748 133.834 246.362 133.834C244.778 133.834 243.502 134.329 242.534 135.319C241.588 136.287 241.115 137.596 241.115 139.246V147.562C241.115 148.244 240.785 148.585 240.125 148.585ZM262.518 148.651C261.44 148.651 260.472 148.442 259.614 148.024C258.778 147.606 258.107 147.034 257.601 146.308C257.117 145.582 256.875 144.768 256.875 143.866C256.875 142.678 257.172 141.754 257.766 141.094C258.36 140.412 259.361 139.928 260.769 139.642C262.177 139.356 264.113 139.213 266.577 139.213H267.6V138.025C267.6 136.551 267.303 135.484 266.709 134.824C266.115 134.142 265.169 133.801 263.871 133.801C263.035 133.801 262.221 133.911 261.429 134.131C260.637 134.351 259.812 134.703 258.954 135.187C258.558 135.407 258.239 135.418 257.997 135.22C257.777 135 257.667 134.725 257.667 134.395C257.689 134.043 257.876 133.779 258.228 133.603C259.13 133.097 260.065 132.723 261.033 132.481C262.001 132.217 262.936 132.085 263.838 132.085C265.774 132.085 267.204 132.58 268.128 133.57C269.074 134.56 269.547 136.078 269.547 138.124V147.562C269.547 148.244 269.239 148.585 268.623 148.585C267.963 148.585 267.633 148.244 267.633 147.562V145.516C267.193 146.506 266.522 147.276 265.62 147.826C264.74 148.376 263.706 148.651 262.518 148.651ZM262.782 147.034C263.728 147.034 264.553 146.814 265.257 146.374C265.983 145.912 266.555 145.285 266.973 144.493C267.391 143.701 267.6 142.799 267.6 141.787V140.698H266.61C264.63 140.698 263.079 140.786 261.957 140.962C260.857 141.138 260.087 141.446 259.647 141.886C259.207 142.326 258.987 142.931 258.987 143.701C258.987 144.691 259.328 145.494 260.01 146.11C260.692 146.726 261.616 147.034 262.782 147.034ZM279.429 148.651C277.955 148.651 276.811 148.2 275.997 147.298C275.205 146.374 274.809 145.054 274.809 143.338V125.947C274.809 125.265 275.15 124.924 275.832 124.924C276.492 124.924 276.822 125.265 276.822 125.947V143.107C276.822 145.637 277.812 146.902 279.792 146.902C279.99 146.902 280.166 146.891 280.32 146.869C280.496 146.847 280.661 146.836 280.815 146.836C281.013 146.814 281.156 146.858 281.244 146.968C281.354 147.056 281.409 147.254 281.409 147.562C281.409 148.134 281.079 148.475 280.419 148.585C280.265 148.629 280.1 148.651 279.924 148.651C279.748 148.651 279.583 148.651 279.429 148.651ZM285.243 128.257C284.275 128.257 283.791 127.795 283.791 126.871C283.791 125.969 284.275 125.518 285.243 125.518C286.211 125.518 286.695 125.969 286.695 126.871C286.695 127.795 286.211 128.257 285.243 128.257ZM285.243 148.519C284.561 148.519 284.22 148.156 284.22 147.43V133.306C284.22 132.602 284.561 132.25 285.243 132.25C285.903 132.25 286.233 132.602 286.233 133.306V147.43C286.233 148.156 285.903 148.519 285.243 148.519ZM297.64 148.651C296.188 148.651 294.934 148.321 293.878 147.661C292.822 146.979 291.997 146.022 291.403 144.79C290.831 143.536 290.545 142.062 290.545 140.368C290.545 137.838 291.183 135.825 292.459 134.329C293.735 132.833 295.462 132.085 297.64 132.085C298.916 132.085 300.038 132.382 301.006 132.976C301.996 133.548 302.733 134.34 303.217 135.352V125.947C303.217 125.265 303.547 124.924 304.207 124.924C304.889 124.924 305.23 125.265 305.23 125.947V147.562C305.23 148.244 304.9 148.585 304.24 148.585C303.558 148.585 303.217 148.244 303.217 147.562V145.384C302.733 146.396 301.996 147.199 301.006 147.793C300.038 148.365 298.916 148.651 297.64 148.651ZM297.904 146.968C299.532 146.968 300.83 146.396 301.798 145.252C302.766 144.086 303.25 142.458 303.25 140.368C303.25 138.278 302.766 136.661 301.798 135.517C300.83 134.373 299.532 133.801 297.904 133.801C296.276 133.801 294.978 134.373 294.01 135.517C293.064 136.661 292.591 138.278 292.591 140.368C292.591 142.458 293.064 144.086 294.01 145.252C294.978 146.396 296.276 146.968 297.904 146.968ZM315.466 148.651C314.388 148.651 313.42 148.442 312.562 148.024C311.726 147.606 311.055 147.034 310.549 146.308C310.065 145.582 309.823 144.768 309.823 143.866C309.823 142.678 310.12 141.754 310.714 141.094C311.308 140.412 312.309 139.928 313.717 139.642C315.125 139.356 317.061 139.213 319.525 139.213H320.548V138.025C320.548 136.551 320.251 135.484 319.657 134.824C319.063 134.142 318.117 133.801 316.819 133.801C315.983 133.801 315.169 133.911 314.377 134.131C313.585 134.351 312.76 134.703 311.902 135.187C311.506 135.407 311.187 135.418 310.945 135.22C310.725 135 310.615 134.725 310.615 134.395C310.637 134.043 310.824 133.779 311.176 133.603C312.078 133.097 313.013 132.723 313.981 132.481C314.949 132.217 315.884 132.085 316.786 132.085C318.722 132.085 320.152 132.58 321.076 133.57C322.022 134.56 322.495 136.078 322.495 138.124V147.562C322.495 148.244 322.187 148.585 321.571 148.585C320.911 148.585 320.581 148.244 320.581 147.562V145.516C320.141 146.506 319.47 147.276 318.568 147.826C317.688 148.376 316.654 148.651 315.466 148.651ZM315.73 147.034C316.676 147.034 317.501 146.814 318.205 146.374C318.931 145.912 319.503 145.285 319.921 144.493C320.339 143.701 320.548 142.799 320.548 141.787V140.698H319.558C317.578 140.698 316.027 140.786 314.905 140.962C313.805 141.138 313.035 141.446 312.595 141.886C312.155 142.326 311.935 142.931 311.935 143.701C311.935 144.691 312.276 145.494 312.958 146.11C313.64 146.726 314.564 147.034 315.73 147.034ZM333.863 148.651C332.411 148.651 331.157 148.321 330.101 147.661C329.045 146.979 328.22 146.022 327.626 144.79C327.054 143.536 326.768 142.062 326.768 140.368C326.768 137.838 327.406 135.825 328.682 134.329C329.958 132.833 331.685 132.085 333.863 132.085C335.139 132.085 336.261 132.382 337.229 132.976C338.219 133.548 338.956 134.34 339.44 135.352V125.947C339.44 125.265 339.77 124.924 340.43 124.924C341.112 124.924 341.453 125.265 341.453 125.947V147.562C341.453 148.244 341.123 148.585 340.463 148.585C339.781 148.585 339.44 148.244 339.44 147.562V145.384C338.956 146.396 338.219 147.199 337.229 147.793C336.261 148.365 335.139 148.651 333.863 148.651ZM334.127 146.968C335.755 146.968 337.053 146.396 338.021 145.252C338.989 144.086 339.473 142.458 339.473 140.368C339.473 138.278 338.989 136.661 338.021 135.517C337.053 134.373 335.755 133.801 334.127 133.801C332.499 133.801 331.201 134.373 330.233 135.517C329.287 136.661 328.814 138.278 328.814 140.368C328.814 142.458 329.287 144.086 330.233 145.252C331.201 146.396 332.499 146.968 334.127 146.968ZM353.702 148.651C351.238 148.651 349.291 147.925 347.861 146.473C346.453 144.999 345.749 142.986 345.749 140.434C345.749 138.784 346.068 137.332 346.706 136.078C347.344 134.824 348.224 133.845 349.346 133.141C350.49 132.437 351.799 132.085 353.273 132.085C355.407 132.085 357.068 132.778 358.256 134.164C359.444 135.55 360.038 137.453 360.038 139.873C360.038 140.489 359.73 140.797 359.114 140.797H347.729C347.795 142.777 348.334 144.306 349.346 145.384C350.38 146.44 351.81 146.968 353.636 146.968C354.45 146.968 355.231 146.869 355.979 146.671C356.749 146.451 357.497 146.066 358.223 145.516C358.619 145.252 358.96 145.197 359.246 145.351C359.532 145.483 359.686 145.714 359.708 146.044C359.752 146.352 359.587 146.638 359.213 146.902C358.509 147.474 357.651 147.914 356.639 148.222C355.649 148.508 354.67 148.651 353.702 148.651ZM353.306 133.702C351.634 133.702 350.325 134.23 349.379 135.286C348.455 136.32 347.916 137.662 347.762 139.312H358.223C358.179 137.552 357.739 136.177 356.903 135.187C356.067 134.197 354.868 133.702 353.306 133.702ZM369.355 148.651C368.365 148.651 367.375 148.519 366.385 148.255C365.417 147.991 364.493 147.54 363.613 146.902C363.327 146.726 363.195 146.484 363.217 146.176C363.239 145.846 363.36 145.593 363.58 145.417C363.822 145.241 364.119 145.263 364.471 145.483C365.329 146.055 366.165 146.451 366.979 146.671C367.793 146.891 368.607 147.001 369.421 147.001C370.785 147.001 371.808 146.759 372.49 146.275C373.194 145.769 373.546 145.076 373.546 144.196C373.546 143.514 373.315 142.975 372.853 142.579C372.391 142.183 371.665 141.864 370.675 141.622L367.804 140.962C365.098 140.346 363.745 138.949 363.745 136.771C363.745 135.363 364.295 134.23 365.395 133.372C366.495 132.514 367.947 132.085 369.751 132.085C370.697 132.085 371.61 132.228 372.49 132.514C373.392 132.8 374.173 133.24 374.833 133.834C375.119 134.054 375.24 134.318 375.196 134.626C375.152 134.934 374.998 135.165 374.734 135.319C374.492 135.473 374.206 135.429 373.876 135.187C373.238 134.703 372.567 134.351 371.863 134.131C371.159 133.889 370.444 133.768 369.718 133.768C368.442 133.768 367.452 134.032 366.748 134.56C366.066 135.088 365.725 135.803 365.725 136.705C365.725 137.387 365.934 137.937 366.352 138.355C366.77 138.773 367.452 139.092 368.398 139.312L371.269 139.972C372.699 140.302 373.766 140.797 374.47 141.457C375.174 142.095 375.526 142.964 375.526 144.064C375.526 145.494 374.965 146.616 373.843 147.43C372.721 148.244 371.225 148.651 369.355 148.651ZM380.89 142.843C380.45 142.843 380.219 142.568 380.197 142.018L379.702 126.211C379.658 125.353 380.054 124.924 380.89 124.924C381.704 124.924 382.1 125.353 382.078 126.211L381.55 142.018C381.55 142.568 381.33 142.843 380.89 142.843ZM380.89 148.486C380.45 148.486 380.087 148.343 379.801 148.057C379.515 147.771 379.372 147.408 379.372 146.968C379.372 146.528 379.515 146.165 379.801 145.879C380.087 145.593 380.45 145.45 380.89 145.45C381.352 145.45 381.715 145.593 381.979 145.879C382.265 146.165 382.408 146.528 382.408 146.968C382.408 147.408 382.265 147.771 381.979 148.057C381.715 148.343 381.352 148.486 380.89 148.486Z" fill="white"/>
</svg>
