<svg width="395" height="38" viewBox="0 0 395 38" fill="none" xmlns="http://www.w3.org/2000/svg">
<path d="M6.016 25.144C5.92 16.376 5.888 11.64 5.888 10.968L16.064 25.528C16.48 26.104 16.832 26.52 17.12 26.744C17.408 27 17.792 27.096 18.24 27.096C18.816 27.096 19.328 26.968 19.744 26.648C20.128 26.328 20.352 25.912 20.352 25.4C20.352 22.776 20.32 20.312 20.288 18.008C20.288 16.856 20.288 15.096 20.288 12.664C20.288 10.264 20.32 8.472 20.32 7.288C20.32 5.944 19.744 5.24 18.624 5.24C17.92 5.24 17.408 5.432 17.152 5.816C16.896 6.2 16.768 6.744 16.8 7.48L16.864 14.52C16.864 16.632 16.864 18.808 16.928 21.016L14.368 17.368L6.912 6.84C6.528 6.328 6.144 5.912 5.824 5.656C5.504 5.4 5.088 5.24 4.64 5.24C4.064 5.24 3.552 5.4 3.136 5.688C2.688 5.976 2.496 6.36 2.496 6.84V10.36V17.528C2.464 21.56 2.464 24.248 2.464 25.528C2.464 26.616 3.104 27.128 4.32 27.128C5.44 27.128 6.016 26.488 6.016 25.144ZM34.8125 5.048C32.0605 5.016 29.5965 6.072 27.4525 8.248C25.3085 10.424 24.2525 13.24 24.2525 16.664C24.2525 19.832 25.2765 22.392 27.3885 24.376C29.5005 26.36 31.9325 27.32 34.7165 27.32C37.7565 27.32 40.2845 26.232 42.3005 24.024C44.3165 21.816 45.3405 19.096 45.3405 15.896C45.3405 12.76 44.2845 10.168 42.2365 8.12C40.1565 6.072 37.6925 5.048 34.8125 5.048ZM41.7885 15.96C41.7885 18.104 41.1485 19.96 39.8045 21.56C38.4605 23.16 36.8285 23.96 34.9085 23.96C32.8925 23.96 31.1965 23.256 29.8525 21.848C28.4765 20.44 27.8045 18.616 27.8045 16.344C27.8045 14.04 28.4445 12.152 29.7885 10.616C31.1005 9.08 32.6685 8.312 34.5245 8.312C36.4765 8.312 38.1725 9.048 39.6125 10.456C41.0205 11.896 41.7565 13.72 41.7885 15.96ZM47.4958 8.376C48.7758 11.608 50.1198 14.872 51.5278 18.2C52.9358 21.528 53.8958 23.864 54.4398 25.24C54.6958 25.912 54.9838 26.392 55.2718 26.68C55.5598 26.968 56.0078 27.096 56.6478 27.096C57.7038 27.096 58.4398 26.616 58.8878 25.592L61.5758 19.192C62.0878 18.008 62.5037 16.984 62.8558 16.12C63.1758 15.256 63.3678 14.808 63.3678 14.776C64.7438 11.448 65.6078 9.304 65.9918 8.344C66.3118 7.512 66.4718 7 66.4718 6.776C66.4718 6.328 66.2478 5.976 65.8318 5.656C65.3838 5.336 64.9678 5.176 64.5198 5.176C63.6878 5.176 63.1438 5.56 62.8558 6.296L57.7998 19.64C57.7358 19.8 57.5758 20.216 57.3198 20.856C57.0638 21.528 56.9038 22.008 56.7758 22.296L51.9118 9.56L50.6958 6.264C50.4078 5.528 49.8638 5.144 49.0958 5.144C48.5838 5.144 48.1038 5.304 47.6878 5.624C47.2398 5.944 47.0478 6.328 47.0478 6.808C47.0478 6.968 47.1758 7.48 47.4958 8.376ZM65.922 25.464C65.922 26.04 66.114 26.456 66.53 26.712C66.914 27 67.394 27.128 67.97 27.128C68.418 27.128 68.738 27.032 68.962 26.776C69.186 26.552 69.41 26.168 69.634 25.656C69.826 25.208 70.114 24.472 70.498 23.416C70.882 22.36 71.138 21.72 71.234 21.496H74.37C77.314 21.496 79.138 21.528 79.906 21.528C79.938 21.752 80.482 23.224 81.57 25.912C81.762 26.392 81.986 26.712 82.242 26.904C82.498 27.096 82.85 27.16 83.33 27.16C83.842 27.16 84.322 27.032 84.706 26.712C85.09 26.392 85.282 26.072 85.282 25.688C85.282 25.368 85.186 24.984 84.994 24.536C84.29 23 83.426 20.888 82.37 18.2C82.306 18.072 82.242 17.912 82.114 17.656C81.986 17.4 81.922 17.272 81.922 17.208C81.538 16.28 80.802 14.488 79.778 11.832C78.754 9.176 78.05 7.416 77.698 6.52C77.378 5.656 76.642 5.208 75.554 5.208C74.562 5.208 73.89 5.624 73.57 6.456L69.634 16.28L66.466 23.64C66.082 24.408 65.922 25.016 65.922 25.464ZM75.618 9.528L78.85 18.616C77.09 18.68 74.882 18.68 72.226 18.68C74.178 13.496 75.298 10.424 75.618 9.528ZM101.039 6.168C99.4393 5.4 97.5833 5.016 95.5353 5.016C93.4553 5.016 91.6633 5.656 90.1273 6.936C88.5913 8.216 87.8553 9.816 87.8553 11.672C87.8553 12.568 88.0153 13.336 88.3993 14.008C88.7513 14.68 89.2633 15.224 89.9673 15.64C90.6393 16.088 91.3433 16.408 92.1113 16.664C92.8473 16.92 93.7113 17.176 94.7353 17.368C96.1433 17.656 97.2313 18.04 97.9993 18.52C98.7673 19 99.1833 19.704 99.1833 20.632C99.1833 21.656 98.7673 22.456 97.9993 23.032C97.1993 23.64 96.1753 23.928 94.9593 23.928C93.5833 23.928 92.1433 23.544 90.6073 22.776C89.9353 22.552 89.4553 22.424 89.1673 22.424C88.7193 22.424 88.3353 22.616 88.0473 22.968C87.7273 23.352 87.5993 23.768 87.5993 24.216C87.5993 24.984 88.0153 25.56 88.9113 25.976C90.6393 26.84 92.6873 27.256 94.9913 27.256C97.2633 27.256 99.1193 26.616 100.591 25.4C102.031 24.184 102.767 22.552 102.767 20.504C102.767 18.648 102.159 17.304 100.943 16.408C99.7273 15.512 98.0313 14.84 95.7913 14.328C95.1513 14.2 94.6713 14.072 94.4153 14.008C94.1593 13.944 93.7753 13.848 93.2953 13.656C92.8153 13.496 92.4633 13.336 92.2713 13.144C92.0793 12.984 91.8873 12.76 91.6953 12.472C91.5033 12.184 91.4393 11.832 91.4393 11.448C91.4393 10.552 91.8233 9.784 92.5913 9.144C93.3593 8.536 94.3193 8.216 95.4392 8.216C96.7193 8.216 97.9033 8.472 99.0233 8.984C99.7273 9.272 100.239 9.4 100.559 9.4C100.975 9.4 101.327 9.24 101.647 8.888C101.935 8.536 102.095 8.152 102.095 7.768C102.095 7.064 101.743 6.52 101.039 6.168ZM114.687 19.448C114.687 19.928 114.655 20.504 114.655 21.176C114.655 21.88 114.655 22.424 114.655 22.872C114.655 23.16 114.623 23.576 114.623 24.152C114.591 24.728 114.591 25.08 114.591 25.208C114.591 25.912 114.719 26.392 115.007 26.68C115.263 26.968 115.743 27.096 116.447 27.096C117.599 27.096 118.175 26.52 118.175 25.304L118.143 20.984V18.296C118.463 18.296 118.911 18.296 119.551 18.296C120.159 18.296 120.607 18.264 120.927 18.264C121.343 18.264 122.079 18.296 123.167 18.296C124.255 18.328 125.023 18.328 125.471 18.328C126.559 18.296 127.103 17.752 127.103 16.728C127.103 16.248 126.975 15.864 126.719 15.544C126.463 15.256 126.143 15.096 125.695 15.096L121.055 15.16H118.207V11.96V8.344C119.615 8.344 121.055 8.376 122.527 8.376C123.999 8.376 124.831 8.376 124.991 8.376H126.815C127.711 8.312 128.191 7.768 128.191 6.68C128.191 6.264 128.063 5.912 127.807 5.624C127.551 5.368 127.231 5.208 126.847 5.208C126.719 5.208 126.495 5.24 126.175 5.24C125.855 5.24 125.599 5.24 125.439 5.24C123.647 5.304 121.215 5.304 118.143 5.304C117.951 5.304 117.631 5.304 117.247 5.304C116.831 5.304 116.543 5.272 116.415 5.272C115.871 5.272 115.423 5.496 115.103 5.88C114.751 6.264 114.591 6.744 114.623 7.288L114.719 11.192L114.687 19.448ZM131.401 18.072C131.401 20.952 132.137 23.192 133.673 24.792C135.209 26.392 137.257 27.192 139.881 27.192C142.633 27.192 144.809 26.328 146.377 24.536C147.913 22.776 148.713 20.344 148.713 17.272L148.649 7.32C148.649 6.616 148.489 6.072 148.233 5.752C147.945 5.432 147.497 5.272 146.889 5.272C145.673 5.272 145.065 5.848 145.065 6.968C145.065 7.288 145.065 9.144 145.097 12.536C145.129 15.928 145.129 17.752 145.097 18.008C145.065 19.736 144.585 21.144 143.689 22.232C142.793 23.352 141.577 23.896 140.105 23.896C138.441 23.896 137.193 23.416 136.297 22.456C135.401 21.496 134.953 20.024 134.953 18.04C134.953 12.088 134.953 8.472 134.985 7.16C134.985 6.52 134.825 6.072 134.569 5.784C134.281 5.496 133.801 5.336 133.129 5.336C131.977 5.336 131.433 5.944 131.433 7.096C131.433 7.928 131.401 9.592 131.401 12.12C131.401 14.68 131.401 16.664 131.401 18.072ZM157.016 25.144C156.92 16.376 156.888 11.64 156.888 10.968L167.064 25.528C167.48 26.104 167.832 26.52 168.12 26.744C168.408 27 168.792 27.096 169.24 27.096C169.816 27.096 170.328 26.968 170.744 26.648C171.128 26.328 171.352 25.912 171.352 25.4C171.352 22.776 171.32 20.312 171.288 18.008C171.288 16.856 171.288 15.096 171.288 12.664C171.288 10.264 171.32 8.472 171.32 7.288C171.32 5.944 170.744 5.24 169.624 5.24C168.92 5.24 168.408 5.432 168.152 5.816C167.896 6.2 167.768 6.744 167.8 7.48L167.864 14.52C167.864 16.632 167.864 18.808 167.928 21.016L165.368 17.368L157.912 6.84C157.528 6.328 157.144 5.912 156.824 5.656C156.504 5.4 156.088 5.24 155.64 5.24C155.064 5.24 154.552 5.4 154.136 5.688C153.688 5.976 153.496 6.36 153.496 6.84V10.36V17.528C153.464 21.56 153.464 24.248 153.464 25.528C153.464 26.616 154.104 27.128 155.32 27.128C156.44 27.128 157.016 26.488 157.016 25.144ZM190.453 5.976C189.109 5.432 187.573 5.144 185.781 5.08C184.469 5.08 183.189 5.368 181.973 5.88C180.725 6.424 179.605 7.16 178.613 8.12C177.589 9.08 176.789 10.264 176.181 11.736C175.573 13.208 175.253 14.808 175.253 16.536C175.221 19.768 176.213 22.36 178.197 24.312C180.181 26.264 182.549 27.256 185.301 27.288C186.997 27.32 188.597 27 190.101 26.36C191.573 25.72 192.341 24.984 192.373 24.216C192.373 23.768 192.245 23.32 191.989 22.936C191.733 22.552 191.381 22.36 190.965 22.36C190.805 22.36 190.645 22.392 190.517 22.424C190.389 22.456 190.26 22.488 190.197 22.52C190.133 22.552 190.005 22.616 189.877 22.68C189.749 22.776 189.621 22.84 189.557 22.872C188.309 23.608 186.997 23.96 185.653 23.928C183.733 23.928 182.133 23.224 180.789 21.752C179.445 20.312 178.773 18.52 178.805 16.408C178.805 14.072 179.509 12.152 180.853 10.616C182.197 9.08 183.733 8.312 185.525 8.312C186.709 8.312 187.893 8.568 189.109 9.08C189.653 9.368 190.133 9.496 190.517 9.496C190.997 9.528 191.381 9.368 191.637 9.048C191.892 8.728 192.021 8.28 192.053 7.768C192.053 7.064 191.509 6.456 190.453 5.976ZM196.161 13.848L196.097 22.616C196.097 22.968 196.065 23.48 196.065 24.12C196.065 24.76 196.065 25.208 196.065 25.464C196.065 26.04 196.225 26.456 196.577 26.712C196.897 27 197.345 27.128 197.889 27.128C198.433 27.128 198.881 27 199.201 26.712C199.521 26.424 199.681 25.976 199.681 25.368L199.649 19.512C199.649 19.128 199.649 18.328 199.649 17.08C199.649 15.864 199.681 14.968 199.681 14.456V6.68C199.681 6.2 199.521 5.816 199.201 5.56C198.881 5.304 198.465 5.144 197.953 5.144C197.409 5.144 196.961 5.304 196.609 5.56C196.257 5.848 196.097 6.264 196.097 6.84C196.129 10.552 196.161 12.888 196.161 13.848ZM214.469 5.048C211.717 5.016 209.253 6.072 207.109 8.248C204.965 10.424 203.909 13.24 203.909 16.664C203.909 19.832 204.933 22.392 207.045 24.376C209.157 26.36 211.589 27.32 214.373 27.32C217.413 27.32 219.941 26.232 221.957 24.024C223.973 21.816 224.997 19.096 224.997 15.896C224.997 12.76 223.941 10.168 221.893 8.12C219.813 6.072 217.349 5.048 214.469 5.048ZM221.445 15.96C221.445 18.104 220.805 19.96 219.461 21.56C218.117 23.16 216.485 23.96 214.565 23.96C212.549 23.96 210.853 23.256 209.509 21.848C208.133 20.44 207.461 18.616 207.461 16.344C207.461 14.04 208.101 12.152 209.445 10.616C210.757 9.08 212.325 8.312 214.181 8.312C216.133 8.312 217.829 9.048 219.269 10.456C220.677 11.896 221.413 13.72 221.445 15.96ZM232.329 25.144C232.233 16.376 232.201 11.64 232.201 10.968L242.377 25.528C242.793 26.104 243.145 26.52 243.433 26.744C243.721 27 244.105 27.096 244.553 27.096C245.128 27.096 245.641 26.968 246.057 26.648C246.441 26.328 246.665 25.912 246.665 25.4C246.665 22.776 246.633 20.312 246.601 18.008C246.601 16.856 246.601 15.096 246.601 12.664C246.601 10.264 246.633 8.472 246.633 7.288C246.633 5.944 246.057 5.24 244.937 5.24C244.233 5.24 243.721 5.432 243.465 5.816C243.208 6.2 243.081 6.744 243.113 7.48L243.177 14.52C243.177 16.632 243.177 18.808 243.241 21.016L240.681 17.368L233.225 6.84C232.841 6.328 232.457 5.912 232.137 5.656C231.817 5.4 231.401 5.24 230.953 5.24C230.377 5.24 229.865 5.4 229.449 5.688C229.001 5.976 228.809 6.36 228.809 6.84V10.36V17.528C228.777 21.56 228.777 24.248 228.777 25.528C228.777 26.616 229.417 27.128 230.633 27.128C231.753 27.128 232.329 26.488 232.329 25.144ZM249.797 25.464C249.797 26.04 249.989 26.456 250.405 26.712C250.789 27 251.269 27.128 251.845 27.128C252.293 27.128 252.613 27.032 252.837 26.776C253.061 26.552 253.285 26.168 253.509 25.656C253.701 25.208 253.989 24.472 254.373 23.416C254.757 22.36 255.013 21.72 255.109 21.496H258.245C261.189 21.496 263.013 21.528 263.781 21.528C263.813 21.752 264.357 23.224 265.445 25.912C265.637 26.392 265.861 26.712 266.117 26.904C266.373 27.096 266.725 27.16 267.205 27.16C267.717 27.16 268.197 27.032 268.581 26.712C268.965 26.392 269.157 26.072 269.157 25.688C269.157 25.368 269.061 24.984 268.869 24.536C268.165 23 267.301 20.888 266.245 18.2C266.181 18.072 266.117 17.912 265.989 17.656C265.861 17.4 265.797 17.272 265.797 17.208C265.413 16.28 264.677 14.488 263.653 11.832C262.629 9.176 261.925 7.416 261.573 6.52C261.253 5.656 260.517 5.208 259.429 5.208C258.437 5.208 257.765 5.624 257.445 6.456L253.509 16.28L250.341 23.64C249.957 24.408 249.797 25.016 249.797 25.464ZM259.493 9.528L262.725 18.616C260.965 18.68 258.757 18.68 256.101 18.68C258.053 13.496 259.173 10.424 259.493 9.528ZM272.498 6.808C272.498 7.512 272.498 8.92 272.498 11.096C272.498 13.272 272.53 14.872 272.53 15.896C272.53 16.664 272.498 17.944 272.434 19.736C272.37 21.528 272.37 22.872 272.37 23.768V24.984C272.434 25.88 272.69 26.456 273.138 26.712C273.586 26.968 274.418 27.096 275.634 27.032C276.498 27 278.002 26.968 280.146 26.968L283.794 27C284.882 27 285.458 26.392 285.458 25.176C285.458 24.184 284.914 23.672 283.89 23.672L279.314 23.832C278.802 23.864 277.65 23.864 275.922 23.864V23.448C275.922 23.192 275.922 22.744 275.922 22.072C275.922 21.432 275.954 20.568 275.954 19.544C275.954 18.904 275.954 17.912 275.954 16.568C275.954 15.224 275.986 14.232 275.986 13.56C275.986 13.048 275.986 12.312 276.018 11.384C276.018 10.456 276.05 9.624 276.05 8.856C276.05 8.12 276.082 7.448 276.082 6.808C276.05 5.72 275.506 5.176 274.418 5.176C273.874 5.176 273.426 5.336 273.074 5.624C272.69 5.912 272.498 6.296 272.498 6.808ZM288.817 13.848L288.753 22.616C288.753 22.968 288.721 23.48 288.721 24.12C288.721 24.76 288.721 25.208 288.721 25.464C288.721 26.04 288.881 26.456 289.233 26.712C289.553 27 290.001 27.128 290.545 27.128C291.089 27.128 291.537 27 291.857 26.712C292.177 26.424 292.337 25.976 292.337 25.368L292.305 19.512C292.305 19.128 292.305 18.328 292.305 17.08C292.305 15.864 292.337 14.968 292.337 14.456V6.68C292.337 6.2 292.177 5.816 291.857 5.56C291.537 5.304 291.121 5.144 290.609 5.144C290.065 5.144 289.617 5.304 289.265 5.56C288.913 5.848 288.753 6.264 288.753 6.84C288.785 10.552 288.817 12.888 288.817 13.848ZM297.493 7.416L297.589 17.176L297.525 24.888C297.525 25.464 297.685 25.912 298.005 26.296C298.325 26.68 298.709 26.872 299.221 26.904C299.925 26.968 301.333 27 303.477 27C311.573 26.936 315.637 23.096 315.637 15.416C315.637 12.28 314.581 9.816 312.469 8.024C310.357 6.264 307.701 5.336 304.533 5.208H300.757C298.581 5.208 297.493 5.944 297.493 7.416ZM303.957 8.408C306.261 8.408 308.213 9.048 309.781 10.264C311.317 11.512 312.117 13.336 312.117 15.768C312.117 21.112 309.141 23.768 303.253 23.768C302.325 23.768 301.749 23.736 301.493 23.672C301.237 23.608 301.109 23.416 301.109 23.032V8.472C301.589 8.44 302.549 8.408 303.957 8.408ZM317.266 25.464C317.266 26.04 317.458 26.456 317.874 26.712C318.258 27 318.738 27.128 319.314 27.128C319.762 27.128 320.082 27.032 320.306 26.776C320.53 26.552 320.754 26.168 320.978 25.656C321.17 25.208 321.458 24.472 321.842 23.416C322.226 22.36 322.482 21.72 322.578 21.496H325.714C328.658 21.496 330.482 21.528 331.25 21.528C331.282 21.752 331.826 23.224 332.914 25.912C333.106 26.392 333.33 26.712 333.586 26.904C333.842 27.096 334.194 27.16 334.674 27.16C335.186 27.16 335.666 27.032 336.05 26.712C336.434 26.392 336.626 26.072 336.626 25.688C336.626 25.368 336.53 24.984 336.338 24.536C335.634 23 334.77 20.888 333.714 18.2C333.65 18.072 333.586 17.912 333.458 17.656C333.33 17.4 333.266 17.272 333.266 17.208C332.882 16.28 332.146 14.488 331.122 11.832C330.098 9.176 329.394 7.416 329.042 6.52C328.722 5.656 327.986 5.208 326.898 5.208C325.906 5.208 325.234 5.624 324.914 6.456L320.978 16.28L317.81 23.64C317.426 24.408 317.266 25.016 317.266 25.464ZM326.962 9.528L330.194 18.616C328.434 18.68 326.226 18.68 323.57 18.68C325.522 13.496 326.642 10.424 326.962 9.528ZM339.743 7.416L339.839 17.176L339.775 24.888C339.775 25.464 339.935 25.912 340.255 26.296C340.575 26.68 340.959 26.872 341.471 26.904C342.175 26.968 343.583 27 345.727 27C353.823 26.936 357.887 23.096 357.887 15.416C357.887 12.28 356.831 9.816 354.719 8.024C352.607 6.264 349.951 5.336 346.783 5.208H343.007C340.831 5.208 339.743 5.944 339.743 7.416ZM346.207 8.408C348.511 8.408 350.463 9.048 352.031 10.264C353.567 11.512 354.367 13.336 354.367 15.768C354.367 21.112 351.391 23.768 345.503 23.768C344.575 23.768 343.999 23.736 343.743 23.672C343.487 23.608 343.359 23.416 343.359 23.032V8.472C343.839 8.44 344.799 8.408 346.207 8.408ZM361.876 6.904C361.876 7.8 361.844 9.08 361.844 10.808C361.844 12.536 361.844 13.848 361.844 14.68C361.844 15.64 361.812 16.6 361.812 17.56C361.812 18.52 361.78 19.384 361.78 20.088C361.78 20.792 361.748 21.432 361.748 22.008C361.748 22.584 361.716 23.032 361.716 23.352C361.716 23.672 361.716 23.864 361.716 23.864V25.048C361.748 25.912 361.972 26.456 362.42 26.712C362.868 26.968 363.764 27.064 365.108 27.064H373.716C374.9 27.064 375.508 26.488 375.508 25.368C375.508 24.344 375.028 23.8 374.1 23.8C373.908 23.8 373.364 23.832 372.532 23.864C368.5 23.928 366.068 23.928 365.236 23.896C365.236 23.448 365.236 22.776 365.236 21.848C365.236 20.952 365.268 20.28 365.268 19.832C365.268 18.904 365.268 18.232 365.3 17.784C365.684 17.784 366.804 17.784 368.628 17.784C370.452 17.784 371.604 17.752 372.116 17.752C373.204 17.752 373.78 17.272 373.78 16.248C373.78 15.64 373.652 15.224 373.332 15.032C373.012 14.84 372.5 14.712 371.828 14.712C369.396 14.776 367.668 14.808 366.644 14.808H365.364V14.392L365.396 11.384V8.312H366.804C371.252 8.312 373.716 8.312 374.196 8.28C374.9 8.12 375.22 7.576 375.188 6.68C375.188 5.72 374.612 5.24 373.46 5.24C373.14 5.24 372.116 5.272 370.42 5.272C368.692 5.304 367.092 5.304 365.556 5.304C365.236 5.304 364.756 5.272 364.148 5.272C362.676 5.272 361.94 5.816 361.876 6.904ZM391.633 6.168C390.033 5.4 388.177 5.016 386.129 5.016C384.049 5.016 382.257 5.656 380.721 6.936C379.185 8.216 378.449 9.816 378.449 11.672C378.449 12.568 378.609 13.336 378.993 14.008C379.345 14.68 379.857 15.224 380.561 15.64C381.233 16.088 381.937 16.408 382.705 16.664C383.441 16.92 384.305 17.176 385.329 17.368C386.737 17.656 387.825 18.04 388.593 18.52C389.361 19 389.777 19.704 389.777 20.632C389.777 21.656 389.361 22.456 388.593 23.032C387.793 23.64 386.769 23.928 385.553 23.928C384.177 23.928 382.737 23.544 381.201 22.776C380.529 22.552 380.049 22.424 379.761 22.424C379.313 22.424 378.929 22.616 378.641 22.968C378.321 23.352 378.193 23.768 378.193 24.216C378.193 24.984 378.609 25.56 379.505 25.976C381.233 26.84 383.281 27.256 385.585 27.256C387.857 27.256 389.713 26.616 391.185 25.4C392.625 24.184 393.361 22.552 393.361 20.504C393.361 18.648 392.753 17.304 391.537 16.408C390.321 15.512 388.625 14.84 386.385 14.328C385.745 14.2 385.265 14.072 385.009 14.008C384.753 13.944 384.369 13.848 383.889 13.656C383.409 13.496 383.057 13.336 382.865 13.144C382.673 12.984 382.481 12.76 382.289 12.472C382.097 12.184 382.033 11.832 382.033 11.448C382.033 10.552 382.417 9.784 383.185 9.144C383.953 8.536 384.913 8.216 386.033 8.216C387.313 8.216 388.497 8.472 389.617 8.984C390.321 9.272 390.833 9.4 391.153 9.4C391.569 9.4 391.921 9.24 392.241 8.888C392.529 8.536 392.689 8.152 392.689 7.768C392.689 7.064 392.337 6.52 391.633 6.168Z" fill="white"/>
</svg>
